<svg width="76" height="76" viewBox="0 0 76 76" fill="none" xmlns="http://www.w3.org/2000/svg">
<g filter="url(#filter0_d)">
<circle cx="38" cy="30" r="22" fill="#87E6FF"/>
</g>
<path fill-rule="evenodd" clip-rule="evenodd" d="M46.932 30.294C46.893 30.397 46.836 30.495 46.752 30.579L40.528 36.752C40.216 37.064 39.709 37.064 39.397 36.752C39.084 36.443 39.084 35.941 39.397 35.631L44.317 30.75H29.766C29.343 30.75 29 30.407 29 29.984C29 29.561 29.343 29.218 29.766 29.218H44.312L39.397 24.342C39.084 24.032 39.084 23.53 39.397 23.22C39.709 22.91 40.216 22.91 40.528 23.22L46.752 29.394C46.834 29.475 46.892 29.571 46.931 29.673C46.974 29.768 47 29.872 47 29.984C47 30.095 46.974 30.199 46.932 30.294Z" fill="white"/>
<defs>
<filter id="filter0_d" x="0" y="0" width="76" height="76" filterUnits="userSpaceOnUse" color-interpolation-filters="sRGB">
<feFlood flood-opacity="0" result="BackgroundImageFix"/>
<feColorMatrix in="SourceAlpha" type="matrix" values="0 0 0 0 0 0 0 0 0 0 0 0 0 0 0 0 0 0 127 0"/>
<feOffset dy="8"/>
<feGaussianBlur stdDeviation="8"/>
<feColorMatrix type="matrix" values="0 0 0 0 0.403922 0 0 0 0 0.717647 0 0 0 0 0.870588 0 0 0 0.29 0"/>
<feBlend mode="normal" in2="BackgroundImageFix" result="effect1_dropShadow"/>
<feBlend mode="normal" in="SourceGraphic" in2="effect1_dropShadow" result="shape"/>
</filter>
</defs>
</svg>
