<svg width="260" height="178" viewBox="0 0 260 178" fill="none" xmlns="http://www.w3.org/2000/svg">
<path opacity="0.5" d="M152.36 157.729L69.9751 109.777C68.675 109.02 68.675 107.128 69.9751 106.372L147.936 61L235.025 111.691C236.325 112.447 236.325 114.339 235.025 115.096L161.769 157.729C158.858 159.424 155.271 159.423 152.36 157.729Z" fill="#173D7A"/>
<path d="M149.86 32.5178C149.865 27.2158 146.129 25.0556 141.533 27.7025L63.4038 72.695C62.1401 73.4224 61.1142 75.1947 61.113 76.6523C61.1118 78.11 62.1354 78.7019 63.3991 77.974L141.528 32.982C143.601 31.7881 145.286 32.762 145.284 35.1534L145.276 43.8864C146.792 43.7918 148.314 43.7906 149.851 43.8172L149.86 32.5178Z" fill="#D4ECFF"/>
<path d="M63.3701 93.6778L141.499 65.2217C146.096 62.5748 149.839 56.1078 149.844 50.8058L149.85 43.8173C148.314 43.7907 146.792 43.7919 145.276 43.8865L145.267 53.4415C145.265 55.8329 143.577 58.7488 141.504 59.9427L63.3748 88.3989C62.1111 89.1262 61.0858 90.8985 61.084 92.3562C61.0828 93.8132 62.1064 94.4052 63.3701 93.6778Z" fill="#5793CE"/>
<path d="M61.6757 93.7825L156.717 148.75L237.183 100.786L243.567 91.2628L242.904 94.637L241.189 85.8029L91.8221 91.4975L65.5059 89.8033L61.6757 93.7825Z" fill="#5793CE"/>
<path d="M64.8273 77.1946L64.8019 88.8879L156.658 142.004L159.14 130.86L64.8273 77.1946Z" fill="#86B8E0"/>
<path d="M242.383 82.0436L147.493 27.1726L61.9401 76.9001L61.7632 78.1212L156.793 133.073L242.383 82.0436Z" fill="#D4ECFF"/>
<path d="M212.132 110.221L234.443 96.9935C236.322 95.673 237.796 93.0049 237.798 90.7743L237.815 89.0227C237.816 87.6059 237.222 86.6923 236.309 86.4261L192.39 110.847L156.625 130.181L156.658 142.004L212.132 110.221Z" fill="white"/>
<path d="M159.832 131.261L65.5444 76.7381L63.5458 75.5827L61.72 74.5271C61.3467 75.2119 61.113 75.9658 61.1124 76.6524C61.1118 77.3691 61.3603 77.8729 61.7626 78.1172L61.7632 78.1213L61.778 78.1302L61.7851 78.1343L156.792 133.073L159.832 131.261Z" fill="#5793CE"/>
<path d="M155.532 148.064L156.717 148.75L156.935 148.372L156.197 147.792L155.532 148.064Z" fill="white"/>
<path d="M155.562 132.359L156.776 133.061L156.472 132.399L155.562 132.359Z" fill="white"/>
<path d="M158.432 127.646L236.561 82.6539C241.158 80.007 244.894 82.1672 244.889 87.4692L244.872 89.2208C244.867 94.5228 241.124 100.99 236.528 103.637L158.399 148.629C157.135 149.356 156.111 148.764 156.113 147.307C156.114 145.849 157.14 144.078 158.403 143.35L236.532 98.3577C238.606 97.1637 240.294 94.2478 240.296 91.8564L240.312 90.1048C240.315 87.7134 238.63 86.7395 236.557 87.9334L158.428 132.925C157.164 133.653 156.14 133.061 156.142 131.604C156.143 130.145 157.169 128.374 158.432 127.646Z" fill="#D4ECFF"/>
<path d="M123.636 84.0252L164.235 60.6451L199.446 81.0058L158.847 104.386L123.636 84.0252Z" fill="white"/>
<path d="M156.113 147.307C156.114 145.849 157.14 144.078 158.403 143.35L236.532 98.3577C238.606 97.1638 240.294 94.2478 240.296 91.8564L240.312 90.1049C240.314 88.539 239.589 87.5869 238.51 87.4468C238.858 87.9033 239.062 88.5556 239.061 89.3811L239.044 91.1332C239.042 93.5246 237.354 96.4406 235.281 97.6345L157.152 142.626C155.888 143.354 154.862 145.126 154.861 146.584C154.86 147.688 155.448 148.292 156.283 148.205C156.175 147.959 156.113 147.66 156.113 147.307Z" fill="white"/>
<path d="M156.142 131.603C156.143 130.146 157.169 128.374 158.432 127.646L236.561 82.6532C238.541 81.5131 240.359 81.2695 241.789 81.7798C240.261 80.4777 237.926 80.4221 235.31 81.9294L157.181 126.921C155.917 127.649 154.891 129.421 154.89 130.879C154.889 131.983 155.477 132.587 156.312 132.5C156.203 132.256 156.142 131.956 156.142 131.603Z" fill="white"/>
<path opacity="0.5" d="M22.9006 104.177L1.46607 91.8148C0.150596 91.0561 0.315477 89.7308 1.83452 88.855L22.5315 76.9185C24.0506 76.0426 26.3482 75.9475 27.6637 76.7062L49.0982 89.0678C50.4137 89.8265 50.2488 91.1519 48.7298 92.0277L28.0327 103.964C26.5143 104.841 24.2161 104.936 22.9006 104.177Z" fill="#173D7A"/>
<path d="M49.9798 83.091V75.7032L33.3958 75.6937L27.6637 72.3877C26.3482 71.629 24.0506 71.7242 22.5316 72.6L17.1833 75.6842L0.584531 75.6752V83.273C0.547031 83.7867 0.833935 84.282 1.46608 84.6465L22.9006 97.0087C24.2161 97.7674 26.5143 97.6723 28.0327 96.7964L48.7298 84.8599C49.6066 84.3551 50.0292 83.7005 49.9798 83.091Z" fill="#396CAA"/>
<path d="M25.2827 71.8799C24.3202 71.9031 23.3208 72.1457 22.5316 72.6005L17.1833 75.6847L0.584531 75.6758V83.2735C0.547031 83.7872 0.833935 84.2825 1.46608 84.647L22.9006 97.0092C23.5327 97.3737 24.3923 97.539 25.2827 97.5176V71.8799Z" fill="#396CAA"/>
<path d="M2.4631 75.677L0.584531 75.6758V83.2735C0.547031 83.7872 0.833935 84.2825 1.46608 84.647L2.4631 85.222V75.677Z" fill="#5793CE"/>
<path d="M23.231 97.171C24.3655 97.6568 26.0066 97.6294 27.3339 97.124V88.4971H23.231V97.171Z" fill="#5793CE"/>
<path d="M22.9006 89.4389L1.46607 77.0773C0.150596 76.3186 0.315477 74.9932 1.83452 74.1174L22.5315 62.1809C24.0506 61.3051 26.3482 61.2099 27.6637 61.9687L49.0982 74.3309C50.4137 75.0896 50.2488 76.4149 48.7298 77.2908L28.0327 89.2272C26.5143 90.1025 24.2161 90.1976 22.9006 89.4389Z" fill="#D4ECFF"/>
<path d="M48.7304 75.8363L28.0333 87.7728C26.5143 88.6487 24.2167 88.7438 22.9012 87.9851L1.46666 75.6229C1.17321 75.4534 0.957733 75.2554 0.810114 75.0408C0.358328 75.7674 0.56309 76.5552 1.46666 77.0767L22.9012 89.4389C24.2167 90.1976 26.5149 90.1024 28.0333 89.2266L48.7304 77.2901C49.9107 76.6093 50.269 75.6586 49.7554 74.9117C49.5488 75.2429 49.2059 75.5616 48.7304 75.8363Z" fill="white"/>
<path d="M42.0958 85.0406C42.0958 85.5918 41.7083 86.2625 41.2304 86.5384C40.7524 86.8143 40.3649 86.5907 40.3649 86.0389C40.3649 85.4878 40.7524 84.8171 41.2304 84.5412C41.7083 84.2659 42.0958 84.4894 42.0958 85.0406Z" fill="#D4ECFF"/>
<path d="M44.8815 83.4347C44.8815 83.9859 44.494 84.6566 44.0161 84.9324C43.5381 85.2083 43.1506 84.9848 43.1506 84.433C43.1506 83.8818 43.5381 83.2111 44.0161 82.9352C44.494 82.6593 44.8815 82.8829 44.8815 83.4347Z" fill="#D4ECFF"/>
<path d="M47.6673 81.828C47.6673 82.3798 47.2798 83.0499 46.8018 83.3258C46.3238 83.6017 45.9363 83.3781 45.9363 82.8263C45.9363 82.2751 46.3238 81.6044 46.8018 81.3285C47.2792 81.0526 47.6673 81.2762 47.6673 81.828Z" fill="#D4ECFF"/>
<path d="M24.1685 81.7746L14.1381 75.9898C13.5226 75.6348 13.6 75.0146 14.3107 74.6044L23.9958 69.0187C24.7065 68.6091 25.7821 68.5645 26.3976 68.9194L36.428 74.7042C37.0435 75.0592 36.9667 75.6794 36.2554 76.0897L26.5702 81.6753C25.8589 82.0855 24.7839 82.1295 24.1685 81.7746Z" fill="#5793CE"/>
<path d="M25.1286 76.931L23.7411 76.1307C23.656 76.0814 23.6667 75.9957 23.7649 75.9392L25.1048 75.1663C25.203 75.1098 25.3518 75.1032 25.4369 75.1526L26.8244 75.9529C26.9095 76.0023 26.8988 76.0879 26.8006 76.1444L25.4607 76.9174C25.3625 76.9738 25.2137 76.9804 25.1286 76.931Z" fill="#D4ECFF"/>
<path d="M14.1381 75.9898L14.1667 76.0058C14.2131 75.9725 14.2565 75.938 14.3107 75.9071L23.9958 70.3215C24.7065 69.9112 25.7821 69.8672 26.3976 70.2222L36.3994 75.9904C36.9667 75.5848 36.9964 75.0325 36.428 74.7042L26.3976 68.9194C25.7821 68.5645 24.7065 68.6091 23.9958 69.0187L14.3107 74.6044C13.5994 75.0146 13.522 75.6348 14.1381 75.9898Z" fill="#396CAA"/>
<path opacity="0.5" d="M210.744 176.07L189.31 163.708C187.994 162.95 188.159 161.624 189.678 160.749L210.375 148.812C211.894 147.936 214.192 147.841 215.507 148.6L236.942 160.961C238.257 161.72 238.092 163.045 236.573 163.921L215.876 175.858C214.357 176.734 212.06 176.829 210.744 176.07Z" fill="#173D7A"/>
<path d="M237.823 154.985V147.597L221.239 147.587L215.507 144.281C214.192 143.523 211.894 143.618 210.375 144.494L205.027 147.578L188.428 147.569V155.167C188.39 155.681 188.677 156.176 189.31 156.541L210.744 168.903C212.06 169.661 214.358 169.566 215.877 168.691L236.574 156.754C237.449 156.248 237.872 155.593 237.823 154.985Z" fill="#396CAA"/>
<path d="M213.126 143.773C212.163 143.796 211.164 144.039 210.374 144.493L205.026 147.578L188.427 147.568V155.166C188.39 155.68 188.677 156.175 189.309 156.54L210.743 168.902C211.376 169.267 212.235 169.432 213.126 169.411V143.773Z" fill="#396CAA"/>
<path d="M190.307 147.57L188.428 147.569V155.167C188.39 155.681 188.677 156.176 189.31 156.541L190.307 157.116V147.57Z" fill="#5793CE"/>
<path d="M211.074 169.064C212.208 169.55 213.85 169.522 215.177 169.017V160.39H211.074V169.064Z" fill="#5793CE"/>
<path d="M210.744 161.332L189.31 148.97C187.994 148.211 188.159 146.886 189.678 146.01L210.375 134.073C211.894 133.197 214.192 133.102 215.507 133.861L236.942 146.223C238.257 146.981 238.092 148.307 236.573 149.182L215.876 161.119C214.357 161.995 212.06 162.091 210.744 161.332Z" fill="#D4ECFF"/>
<path d="M236.573 147.729L215.876 159.666C214.357 160.542 212.06 160.637 210.744 159.878L189.31 147.516C189.016 147.347 188.801 147.148 188.653 146.934C188.201 147.661 188.406 148.449 189.31 148.97L210.744 161.332C212.06 162.091 214.358 161.996 215.876 161.12L236.573 149.183C237.754 148.502 238.112 147.551 237.598 146.805C237.392 147.136 237.049 147.455 236.573 147.729Z" fill="white"/>
<path d="M229.939 156.934C229.939 157.485 229.552 158.155 229.074 158.431C228.596 158.707 228.208 158.484 228.208 157.932C228.208 157.381 228.596 156.71 229.074 156.434C229.551 156.159 229.939 156.382 229.939 156.934Z" fill="#D4ECFF"/>
<path d="M232.724 155.328C232.724 155.879 232.337 156.55 231.858 156.825C231.38 157.101 230.992 156.878 230.992 156.326C230.992 155.774 231.38 155.104 231.858 154.828C232.337 154.552 232.724 154.776 232.724 155.328Z" fill="#D4ECFF"/>
<path d="M235.51 153.721C235.51 154.272 235.123 154.943 234.645 155.219C234.167 155.495 233.779 155.271 233.779 154.719C233.779 154.168 234.166 153.497 234.645 153.222C235.123 152.946 235.51 153.169 235.51 153.721Z" fill="#D4ECFF"/>
<path d="M212.011 153.667L201.981 147.883C201.365 147.528 201.442 146.908 202.154 146.498L211.839 140.912C212.549 140.502 213.625 140.458 214.24 140.813L224.271 146.598C224.886 146.953 224.81 147.573 224.098 147.983L214.413 153.568C213.702 153.978 212.627 154.022 212.011 153.667Z" fill="#5793CE"/>
<path d="M212.971 148.824L211.584 148.024C211.499 147.974 211.51 147.889 211.608 147.832L212.948 147.059C213.046 147.003 213.195 146.996 213.28 147.046L214.667 147.846C214.752 147.895 214.742 147.981 214.643 148.037L213.304 148.81C213.205 148.867 213.057 148.873 212.971 148.824Z" fill="#D4ECFF"/>
<path d="M201.981 147.883L202.01 147.899C202.056 147.865 202.099 147.831 202.154 147.799L211.839 142.214C212.549 141.804 213.625 141.76 214.24 142.115L224.242 147.883C224.81 147.477 224.839 146.925 224.271 146.597L214.24 140.812C213.625 140.457 212.549 140.501 211.839 140.911L202.154 146.497C201.442 146.908 201.365 147.528 201.981 147.883Z" fill="#396CAA"/>
<path opacity="0.5" d="M41.2303 126.709C42.8701 125.764 45.5289 125.764 47.1692 126.709L123.77 170.869C125.41 171.814 125.41 173.346 123.77 174.291C122.13 175.236 119.471 175.236 117.831 174.291L41.2303 130.131C39.5899 129.186 39.5899 127.654 41.2303 126.709Z" fill="#173D7A"/>
<path d="M33.5652 109.381C33.6314 109.268 33.7619 109.211 33.8895 109.238L38.0606 110.145L36.4181 112.947L33.5989 109.734C33.5127 109.636 33.4997 109.493 33.5652 109.381Z" fill="#D4ECFF"/>
<path d="M35.2102 111.448C35.2149 110.844 35.6431 110.114 36.1664 109.817C36.4086 109.679 36.626 109.663 36.7919 109.739C41.6116 109.7 46.3521 110.972 50.5073 113.421L50.8085 113.599L45.6279 122.436L44.0982 121.419C40.8603 119.266 38.1315 116.43 36.1026 113.107L35.4476 112.035C35.3 111.926 35.2078 111.727 35.2102 111.448Z" fill="#FF2C9C"/>
<path d="M50.7704 119.521C52.2011 117.081 52.2217 114.431 50.8164 113.603C49.4112 112.775 47.1122 114.081 45.6815 116.522C44.2508 118.962 44.2302 121.612 45.6355 122.44C47.0407 123.268 49.3397 121.962 50.7704 119.521Z" fill="#D4ECFF"/>
<path d="M76.3751 141.642L45.628 122.435L50.8091 113.598L82.4965 131.2L76.3751 141.642Z" fill="#D4ECFF"/>
<path d="M75.1453 138.86C75.1666 136.129 77.1045 132.823 79.4736 131.476C81.8432 130.129 83.7463 131.251 83.725 133.982C83.7038 136.712 81.7659 140.018 79.3968 141.366C77.0277 142.713 75.1241 141.591 75.1453 138.86Z" fill="#D4ECFF"/>
<path d="M76.8996 139.894C76.9208 137.163 78.8587 133.857 81.2278 132.51C83.5975 131.163 85.5005 132.285 85.4792 135.016C85.458 137.746 83.5201 141.052 81.1504 142.4C78.7819 143.746 76.8783 142.625 76.8996 139.894Z" fill="#D4ECFF"/>
<path d="M78.1218 142.668L84.2427 132.226L124.92 156.199L118.799 166.641L78.1218 142.668Z" fill="#D4ECFF"/>
<path d="M117.577 163.868C117.598 161.137 119.536 157.831 121.905 156.484C124.275 155.137 126.178 156.259 126.157 158.99C126.136 161.721 124.198 165.026 121.829 166.374C119.459 167.721 117.556 166.599 117.577 163.868Z" fill="#D4ECFF"/>
<path d="M119.112 162.995C119.206 161.383 120.515 159.375 122.037 158.511C123.558 157.646 124.715 158.251 124.621 159.863C124.527 161.475 123.218 163.483 121.697 164.348C120.176 165.213 119.019 164.607 119.112 162.995Z" fill="#396CAA"/>
<path d="M74.8364 138.677C74.8577 135.947 76.7956 132.641 79.1653 131.294C80.1197 130.752 80.9951 130.615 81.7033 130.818C80.9342 130.012 79.6726 129.917 78.2368 130.733C75.8671 132.081 73.9292 135.386 73.908 138.117C73.8955 139.748 74.5724 140.799 75.6214 141.098C75.1217 140.575 74.8282 139.754 74.8364 138.677Z" fill="white"/>
<path d="M74.8364 138.678C74.8577 135.947 76.7956 132.641 79.1647 131.294C80.3495 130.621 81.418 130.564 82.187 131.018L84.4917 132.377L83.3937 134.25C83.1935 136.734 81.5355 139.562 79.4689 140.945L78.3709 142.819L76.0662 141.461C75.2966 141.006 74.8258 140.043 74.8364 138.678Z" fill="#FF2C9C"/>
<path d="M77.1411 140.036C77.1624 137.305 79.1003 133.999 81.47 132.653C83.839 131.305 85.7427 132.427 85.7214 135.158C85.7001 137.889 83.7622 141.195 81.3932 142.542C79.0241 143.888 77.1199 142.767 77.1411 140.036Z" fill="#D4ECFF"/>
<path d="M120.497 163.007C120.506 161.828 121.342 160.402 122.364 159.821C123.387 159.24 124.208 159.724 124.199 160.903C124.189 162.081 123.354 163.507 122.331 164.088C121.309 164.669 120.488 164.185 120.497 163.007Z" fill="#FF2C9C"/>
<path d="M120.497 163.007C120.506 161.828 121.342 160.402 122.364 159.821C122.876 159.531 123.337 159.506 123.668 159.702L132.29 164.784C133.531 165.515 133.946 167.116 133.216 168.36C132.487 169.604 130.89 170.02 129.649 169.289L121.027 164.207C120.695 164.012 120.492 163.596 120.497 163.007Z" fill="#FF2C9C"/>
<path d="M110.914 147.104L112.206 146.368C112.949 145.946 113.932 146.051 114.972 146.665L119.403 149.276C120.239 149.769 120.914 150.961 120.906 151.934L120.889 154.157C120.886 154.53 121.068 154.958 121.335 155.274L121.169 156.304L122.273 155.67L122.271 155.669C122.43 155.587 122.533 155.401 122.534 155.127L122.552 152.904C122.568 150.876 121.161 148.389 119.418 147.362L114.987 144.751C113.507 143.878 112.11 143.729 111.054 144.329L109.761 145.065C109.019 145.486 108.037 145.381 106.995 144.768L89.1359 134.242C88.9056 134.106 88.6965 134.095 88.5459 134.185V134.183L87.4437 134.816L88.3876 135.18C88.5181 135.578 88.7957 135.964 89.1212 136.156L106.98 146.682C108.461 147.554 109.858 147.704 110.914 147.104Z" fill="#5793CE"/>
<path d="M111.088 147.011C111.831 146.589 112.813 146.694 113.853 147.307L118.284 149.919C119.12 150.411 119.794 151.603 119.787 152.576L119.77 154.8C119.765 155.329 120.131 155.975 120.585 156.242C121.04 156.51 121.412 156.299 121.416 155.77L121.433 153.547C121.449 151.519 120.043 149.033 118.299 148.005L113.869 145.394C112.388 144.521 110.991 144.372 109.935 144.972L108.643 145.708C107.9 146.129 106.918 146.025 105.877 145.411L88.0172 134.885C87.563 134.618 87.1909 134.829 87.1868 135.357C87.1827 135.886 87.5477 136.532 88.0025 136.799L105.862 147.325C107.342 148.197 108.739 148.347 109.795 147.747L111.088 147.011Z" fill="#5793CE"/>
<path d="M119.842 152.944L119.825 155.167C119.825 155.181 119.832 155.197 119.832 155.212C119.791 155.072 119.769 154.932 119.77 154.8L119.787 152.576C119.787 152.513 119.777 152.447 119.772 152.382C119.815 152.573 119.844 152.762 119.842 152.944Z" fill="white"/>
<path opacity="0.5" d="M140 55.9126L188.715 84L218 67.1157L169.335 39L140 55.9126Z" fill="#173D7A"/>
<path d="M232.335 39.711L225.9 36.0118L249.628 22.3724C250.748 21.7281 250.748 20.6799 249.628 20.0356L225.388 6.10154C224.267 5.45724 222.444 5.45724 221.323 6.10154L197.595 19.7409L191.16 16.0417L214.888 2.40232C219.557 -0.281732 227.154 -0.281732 231.824 2.40232L256.064 16.3364C260.733 19.0204 260.733 23.3876 256.064 26.0716L232.335 39.711Z" fill="#FF2C9C"/>
<path d="M242.72 41.3398C242.72 37.914 240.628 33.9349 238.047 32.4514L195.057 7.73922C193.901 7.07485 192.846 7.0282 192.03 7.48174L192.028 7.47997L140.698 37.1782L190.335 74.4189L240.905 45.1955C241.061 45.1247 241.212 45.0426 241.352 44.9375L241.352 44.9369C242.198 44.3002 242.72 43.0512 242.72 41.3398Z" fill="#D4ECFF"/>
<path d="M190.335 74.4189L240.905 45.1961C241.061 45.1252 241.212 45.0431 241.352 44.938L241.352 44.9374C242.197 44.3008 242.719 43.0512 242.719 41.3398C242.719 39.7045 242.239 37.9459 241.46 36.3898L183.814 69.5268L190.335 74.4189Z" fill="#396CAA"/>
<path d="M187.103 74.2867L144.112 49.5745C141.532 48.091 139.44 44.1119 139.44 40.6867C139.44 37.2615 141.532 35.6865 144.112 37.17L187.103 61.8822C189.683 63.3656 191.775 67.3448 191.775 70.77C191.775 74.1957 189.683 75.7701 187.103 74.2867Z" fill="#5793CE"/>
<path d="M187.62 61.6477L144.629 36.9355C143.443 36.254 142.363 36.2244 141.539 36.7181C142.277 36.4949 143.161 36.6231 144.112 37.1699L187.103 61.8821C189.683 63.3656 191.775 67.3447 191.775 70.7699V70.7705C191.775 72.6207 191.161 73.9246 190.193 74.5046C191.458 74.1213 192.293 72.6992 192.293 70.5366V70.5361C192.292 67.1109 190.201 63.1317 187.62 61.6477Z" fill="white"/>
<path d="M180.664 65.9527L175.495 62.984C174.981 62.6881 174.564 61.895 174.564 61.2123C174.564 60.5297 174.981 60.2155 175.495 60.5114L180.664 63.4801C181.178 63.7759 181.595 64.569 181.595 65.2517C181.595 65.9344 181.178 66.248 180.664 65.9527Z" fill="white"/>
<path d="M186.493 30.8162C188.052 29.8979 188.037 28.4362 186.459 27.551C184.88 26.6658 182.338 26.6924 180.778 27.6101C179.219 28.5284 179.234 29.99 180.813 30.8752C182.391 31.7605 184.934 31.7339 186.493 30.8162Z" fill="#5793CE"/>
<path d="M195.15 35.6723C196.709 34.7545 196.694 33.2923 195.116 32.4071C193.537 31.5219 190.994 31.5484 189.435 32.4661C187.876 33.3845 187.891 34.8461 189.469 35.7313C191.047 36.6171 193.591 36.5906 195.15 35.6723Z" fill="white"/>
<path d="M203.806 40.5289C205.366 39.6112 205.35 38.149 203.772 37.2638C202.193 36.3785 199.651 36.4051 198.091 37.3228C196.532 38.2411 196.547 39.7028 198.126 40.588C199.704 41.4738 202.247 41.4472 203.806 40.5289Z" fill="white"/>
<path d="M91.4527 111.416C91.4527 111.416 89.2438 110.298 87.8878 111.962C86.5313 113.626 84.5927 117.554 84.5326 120.208C84.4726 122.862 86.6261 122.683 87.9067 122.055C89.1867 121.426 92.9265 115.984 93.1533 114.918C93.38 113.852 92.8864 112.41 92.5265 112.128C92.1654 111.845 91.4527 111.416 91.4527 111.416Z" fill="#FF2C9C"/>
<path d="M91.9345 110.882L92.037 113.177C92.0588 113.665 91.8138 114.131 91.3903 114.372C91.0044 114.591 90.4443 114.759 89.6868 114.638C88.0227 114.369 87.8743 113.892 87.7559 111.597C87.6363 109.302 91.9345 110.882 91.9345 110.882Z" fill="#D4ECFF"/>
<path d="M83.3675 107.002C83.3675 107.002 81.1586 105.884 79.8026 107.548C78.4461 109.212 76.507 113.139 76.4475 115.794C76.3874 118.448 78.5409 118.269 79.8215 117.64C81.1015 117.012 84.8413 111.57 85.0681 110.504C85.2943 109.437 84.8012 107.996 84.4413 107.714C84.0809 107.431 83.3675 107.002 83.3675 107.002Z" fill="#FF2C9C"/>
<path d="M83.8494 106.468L83.9518 108.764C83.9736 109.252 83.7286 109.717 83.3051 109.958C82.9193 110.178 82.3591 110.346 81.6016 110.224C79.9381 109.956 79.7891 109.479 79.6701 107.184C79.5517 104.888 83.8494 106.468 83.8494 106.468Z" fill="#D4ECFF"/>
<path d="M103.557 64.3245C102.904 53.6544 92.0388 65.8945 92.0388 65.8945L84.6027 73.2064L77.9065 80.5857C76.5988 82.0269 75.9904 83.9728 76.2431 85.9051L78.9521 106.597C79.0858 107.619 79.9576 108.373 80.9848 108.364C81.2752 108.362 81.6075 108.335 81.9886 108.276C84.4048 107.899 84.2269 105.594 84.2269 105.594L83.7315 86.2407L97.7943 77.7363C97.7937 77.7363 104.211 74.9945 103.557 64.3245Z" fill="#173D7A"/>
<path d="M111.642 68.3899C110.988 57.7199 100.123 69.9599 100.123 69.9599L92.6867 77.2719L85.9905 84.6511C84.6828 86.0924 84.0744 88.0382 84.3271 89.9705L87.0361 110.662C87.1698 111.684 88.0416 112.438 89.0688 112.43C89.3587 112.427 89.6915 112.401 90.0726 112.342C92.4888 111.964 92.3109 109.66 92.3109 109.66L91.8303 90.8634L105.879 81.8024C105.878 81.8018 112.296 79.0599 111.642 68.3899Z" fill="#173D7A"/>
<path d="M105.214 34.139C113.452 37.5651 113.287 42.4496 113.287 42.4496C113.287 42.4496 111.673 60.3571 112.224 72.3171C112.454 77.3168 85.7449 77.6979 89.728 64.3599C94.4244 48.6329 92.6644 35.9011 94.8627 33.9807C97.061 32.0602 103.083 33.2527 105.214 34.139Z" fill="#FF2C9C"/>
<path d="M107.865 38.4699C107.434 40.1475 105.243 41.0321 102.97 40.4447C100.698 39.8573 99.2051 38.0214 99.6362 36.3438C100.067 34.6662 102.258 33.7816 104.531 34.369C106.803 34.9563 108.295 36.7923 107.865 38.4699Z" fill="#FFC2B0"/>
<path d="M104.566 40.4813L103.05 42.1323C102.854 42.3468 102.76 42.6364 102.793 42.9253L103.835 51.9639C103.864 52.2174 103.794 52.472 103.64 52.6747L100.379 56.9541C100.235 57.1438 99.9367 57.0918 99.8648 56.8643L98.0894 51.2589C98.0223 51.0468 98.0288 50.8181 98.1077 50.6101L101.231 42.4012C101.299 42.2215 101.314 42.026 101.275 41.8375L100.818 39.6611L104.566 40.4813Z" fill="white"/>
<path fill-rule="evenodd" clip-rule="evenodd" d="M102.871 40.8275C103.375 40.9575 103.882 41.0219 104.376 41.0219C105.04 41.0219 105.68 40.9049 106.254 40.6739C107.298 40.2532 108.005 39.5051 108.246 38.5691C108.486 37.6331 108.227 36.6356 107.516 35.7611C106.833 34.922 105.808 34.2921 104.628 33.9872C103.448 33.6834 102.247 33.7372 101.246 34.1414C100.202 34.5615 99.4955 35.3096 99.2545 36.2456C99.0136 37.1816 99.2734 38.1785 99.9838 39.053C100.666 39.8927 101.692 40.5226 102.871 40.8275ZM101.539 34.8735C102.021 34.6791 102.56 34.5816 103.123 34.5816C103.55 34.5816 103.992 34.6384 104.431 34.7518C105.449 35.0154 106.328 35.5507 106.905 36.2604C107.453 36.9346 107.659 37.6845 107.482 38.3711C107.306 39.0578 106.765 39.615 105.96 39.94C105.113 40.2827 104.085 40.3253 103.067 40.0617C102.05 39.7982 101.171 39.2628 100.593 38.5531C100.046 37.8789 99.8401 37.129 100.017 36.4424C100.193 35.7552 100.734 35.1985 101.539 34.8735Z" fill="white"/>
<path d="M101.912 33.7662C101.912 33.7662 101.983 34.0977 101.84 36.7161C101.796 37.5392 104.669 38.3086 105.412 37.5634C106.155 36.8183 105.858 36.0436 106.036 33.2415C106.213 30.44 101.912 33.7662 101.912 33.7662Z" fill="#FFC2B0"/>
<path d="M106.035 33.2415C106.035 33.2415 105.328 35.8391 101.839 36.8354L101.892 34.4747L106.035 33.2415Z" fill="#EA9C92"/>
<path d="M107.981 30.623C109.294 27.3666 107.727 23.6589 104.481 22.3416C101.235 21.0243 97.5389 22.5962 96.2257 25.8526C94.9126 29.109 96.4795 32.8167 99.7256 34.134C102.972 35.4513 106.668 33.8794 107.981 30.623Z" fill="#FFC2B0"/>
<path d="M103.563 28.4675C103.563 28.4675 100.072 29.9679 97.6547 29.985C95.2373 30.0021 95.7704 27.9718 95.7704 27.9718L102.946 26.9318L103.563 28.4675Z" fill="#EA9C92"/>
<path d="M96.9337 28.8628C96.9337 28.8628 99.9749 27.5676 102.643 28.1077C103.27 28.2347 103.851 28.5709 104.255 29.0691C104.387 29.2316 104.554 29.3799 104.743 29.423C105.216 29.5306 105.99 27.5617 106.91 27.5167C107.829 27.4718 108.443 28.1248 107.689 29.3356C106.935 30.5463 107.19 31.9019 107.537 32.0957C107.884 32.2895 112.178 29.2836 108.932 22.8338C105.687 16.384 96.8277 20.037 95.5448 21.3441C95.5448 21.3441 94.1941 22.5247 93.0955 21.4741C93.0955 21.4741 91.8638 30.7277 96.9337 28.8628Z" fill="#D4ECFF"/>
<path d="M108.666 55.5329V60.3719C108.666 60.9261 108.433 61.455 108.024 61.8285L98.1153 70.8912L99.241 72.6185L112.893 63.639C113.503 63.1946 113.898 62.511 113.976 61.7581L114.91 52.7787L108.666 55.5329Z" fill="#FFC2B0"/>
<path d="M112.589 40.0299C112.589 40.0299 115.595 44.5651 116.715 56.5033C116.715 56.5033 111.58 58.1696 108.666 57.2236C105.751 56.2775 112.589 40.0299 112.589 40.0299Z" fill="#FF2C9C"/>
<path d="M108.117 45.764C108.117 45.764 106.94 52.0826 106.873 55.0525C106.854 55.8686 107.351 56.6054 108.117 56.8832V45.764Z" fill="#D3008D"/>
<path d="M105.546 77.1832L103.356 76.8931L89.2185 68.7049C88.7649 68.4425 87.9738 68.475 87.4502 68.7781L77.4323 74.5779L76.1082 74.4024V75.7249H76.1094C76.1005 75.8992 76.1995 76.0664 76.4133 76.1905L92.4352 85.4701C92.8888 85.7325 93.6799 85.7 94.2035 85.3969L105.113 79.08C105.408 78.9099 105.554 78.69 105.546 78.4838V77.1832H105.546Z" fill="#5793CE"/>
<path d="M94.9233 72.0093L93.919 71.4279H82.8763L77.4323 74.5786L76.1082 74.4031V75.7255H76.1094C76.1005 75.8999 76.1995 76.0671 76.4133 76.1912L92.4352 85.4708C92.675 85.6097 93.0089 85.6652 93.3476 85.6422L94.9233 72.0093Z" fill="#396CAA"/>
<path d="M76.6954 74.4811L76.1076 74.4031V75.7255H76.1088C76.0999 75.8998 76.1989 76.0671 76.4127 76.1912L76.6949 76.3548V74.4811H76.6954Z" fill="#5793CE"/>
<path d="M92.5966 85.5464C93.026 85.7101 93.6404 85.6741 94.0993 85.4531V83.2029H92.5966V85.5464Z" fill="#5793CE"/>
<path d="M92.4352 84.1495L76.4133 74.8698C75.9603 74.6075 76.0169 74.1489 76.5405 73.8458L87.4502 67.529C87.9732 67.2258 88.7649 67.1927 89.2185 67.4551L105.24 76.7347C105.693 76.9971 105.637 77.4556 105.113 77.7588L94.2035 84.0756C93.6799 84.3787 92.8882 84.4118 92.4352 84.1495Z" fill="white"/>
<path d="M92.1643 82.7425L78.8419 75.0264C78.4649 74.8084 78.512 74.4266 78.9474 74.1749L84.7936 70.8771C85.2289 70.6253 85.8868 70.5976 86.2638 70.8156L99.5862 78.5317C99.9632 78.7497 99.916 79.1315 99.4807 79.3832L93.6345 82.6811C93.1992 82.9334 92.5412 82.9611 92.1643 82.7425Z" fill="#D4ECFF"/>
<path d="M88.0692 67.2241L87.9037 68.3332C87.7624 69.2781 87.7871 70.2407 87.9756 71.1767L88.1729 72.154C88.2842 72.7053 88.719 73.1332 89.2703 73.2336C89.7009 73.3122 90.1079 73.0085 90.1568 72.5718L90.4213 70.2011C90.4213 70.2011 91.0256 70.9958 91.3178 70.9958C91.6094 70.9958 90.9909 68.6216 90.3306 67.2778C89.6709 65.9347 88.0692 67.2241 88.0692 67.2241Z" fill="#FFC2B0"/>
<path d="M93.5002 49.5991L91.7808 53.0122C91.3744 53.8194 91.1352 54.7004 91.0775 55.6033L90.3312 67.2785L88.0692 67.2247L87.0425 54.1131C87.0107 53.7083 87.0308 53.3012 87.1009 52.9011L88.2736 46.2522L93.5002 49.5991Z" fill="#FFC2B0"/>
<path d="M91.8927 85.0406L90.5491 83.2815L76.4215 75.0761C75.9686 74.8132 75.6022 74.1082 75.6028 73.5019L75.6152 61.8988L74.8029 60.8352L75.5663 60.392L75.5669 60.3932C75.7129 60.2987 75.9073 60.301 76.1205 60.4251L92.1313 69.7242C92.5842 69.9872 92.9506 70.6922 92.95 71.2984L92.9365 83.935C92.9359 84.276 92.8193 84.5135 92.6367 84.6087L91.8927 85.0406Z" fill="#173D7A"/>
<path d="M82.1229 78.387L81.1192 77.8037L75.6093 68.2032L75.6152 61.8982L74.8029 60.8346L75.5663 60.3914L75.5669 60.3926C75.7129 60.298 75.9073 60.3004 76.1205 60.4245L92.1313 69.7236C92.3704 69.8625 92.5854 70.1255 92.735 70.4315L82.1229 78.387Z" fill="#396CAA"/>
<path d="M75.1634 61.3073L74.8029 60.8352L75.5663 60.392L75.5669 60.3932C75.7129 60.2987 75.9073 60.301 76.1205 60.4251L76.4027 60.5888L75.1634 61.3073Z" fill="#5793CE"/>
<path d="M92.2768 69.8264C92.6326 70.1183 92.9082 70.6702 92.9453 71.179L91.3808 72.0855L90.631 70.7796L92.2768 69.8264Z" fill="#274F89"/>
<path d="M91.3691 70.1668L75.3583 60.8677C74.9054 60.6047 74.5378 60.883 74.5366 61.4887L74.5231 74.1253C74.5225 74.7316 74.8889 75.4365 75.3418 75.6995L91.3526 84.9986C91.8055 85.2616 92.1731 84.9833 92.1743 84.3776L92.1878 71.741C92.1884 71.1347 91.822 70.4298 91.3691 70.1668Z" fill="#5793CE"/>
<path d="M99.241 72.6185L98.9842 73.1515C98.6891 73.7654 98.2243 74.2819 97.6459 74.6394L96.0555 75.6226C95.5607 75.9287 94.9339 75.9536 94.4321 75.6605C94.4138 75.6498 94.3961 75.6392 94.3779 75.628C93.8725 75.3101 93.8265 74.5821 94.2424 74.1536L95.9041 72.44C95.9041 72.44 94.9705 73.1574 94.7089 72.8684C94.5169 72.6563 95.6143 71.6228 96.4566 71.5891C97.2989 71.5554 98.1142 70.8912 98.1142 70.8912L99.241 72.6185Z" fill="#FFC2B0"/>
<path d="M95.0276 33.9559C95.0276 33.9559 88.9351 40.606 86.4777 46.7066C86.4777 46.7066 88.5611 50.4718 93.6604 51.9491C98.7598 53.4264 95.0276 33.9559 95.0276 33.9559Z" fill="#FF2C9C"/>
<path d="M92.513 51.5544L93.5002 41.9852L91.1735 50.9511C91.5882 51.168 92.037 51.3695 92.513 51.5544Z" fill="#D3008D"/>
<path d="M99.5903 32.6133L97.9534 32.1619C97.9534 32.1619 98.735 33.3951 99.876 33.7095C101.017 34.0238 101.194 33.0547 101.194 33.0547L99.5903 32.6133Z" fill="white"/>
<path d="M108.335 29.985C108.335 30.4903 107.926 30.8998 107.423 30.8998C106.919 30.8998 106.511 30.4903 106.511 29.985C106.511 29.4798 106.919 29.0703 107.423 29.0703C107.926 29.0703 108.335 29.4798 108.335 29.985Z" fill="white"/>
<path opacity="0.5" d="M159.428 115.944C168.762 115.944 176.329 111.558 176.329 106.148C176.329 100.738 168.762 96.3525 159.428 96.3525C150.094 96.3525 142.527 100.738 142.527 106.148C142.527 111.558 150.094 115.944 159.428 115.944Z" fill="#173D7A"/>
<path d="M178.655 97.7704V92.3507H177.636C176.721 90.7686 175.197 89.279 173.024 88.0196C165.514 83.6671 153.34 83.6671 145.831 88.0196C143.658 89.279 142.134 90.7692 141.218 92.3507H140.201V97.7413H140.202C140.189 100.603 142.064 103.468 145.832 105.651C153.341 110.004 165.515 110.004 173.024 105.652C176.779 103.475 178.656 100.623 178.655 97.7704Z" fill="#FF2C9C"/>
<path d="M159.428 103.495C170.047 103.495 178.656 98.5051 178.656 92.35C178.656 86.1949 170.047 81.2052 159.428 81.2052C148.808 81.2052 140.2 86.1949 140.2 92.35C140.2 98.5051 148.808 103.495 159.428 103.495Z" fill="#FF2C9C"/>
<path d="M173.024 100.231C165.515 104.583 153.341 104.583 145.832 100.231C142.233 98.1453 140.378 95.4378 140.229 92.7048C140.066 95.6745 141.921 98.6738 145.832 100.941C153.341 105.293 165.515 105.293 173.024 100.941C176.934 98.6744 178.789 95.6751 178.627 92.7054C178.477 95.4378 176.623 98.1453 173.024 100.231Z" fill="white"/>
<path d="M150.16 96.0399C149.837 95.8525 149.652 95.5974 149.654 95.3287L149.673 88.0676C149.674 87.5142 150.451 87.0657 151.406 87.0663C152.362 87.0663 153.134 87.5165 153.134 88.0712L153.118 94.0924L170.525 91.9526C171.46 91.8376 172.378 92.184 172.577 92.7256C172.775 93.2672 172.178 93.7999 171.243 93.915L151.744 96.3122C151.232 96.3751 150.7 96.3009 150.294 96.1099C150.247 96.088 150.202 96.0648 150.16 96.0399Z" fill="white"/>
<path opacity="0.5" d="M48.6596 177.81L38.321 171.991L48.6596 166.173L58.9982 171.991L48.6596 177.81Z" fill="#173D7A"/>
<path d="M58.9982 164.603L48.6596 170.422V158.785L58.9982 152.967V164.603Z" fill="#D3008D"/>
<path d="M48.6596 158.785L38.3216 152.967L48.6596 147.148L58.9976 152.967L48.6596 158.785Z" fill="#FF2C9C"/>
<path d="M48.6596 170.422L38.3216 164.603V152.967L48.6596 158.785V170.422Z" fill="#FF2C9C"/>
<path d="M44.9366 164.135L42.0446 162.508V159.253L44.9366 160.881V164.135Z" fill="white"/>
</svg>
