<svg width="260" height="222" viewBox="0 0 260 222" fill="none" xmlns="http://www.w3.org/2000/svg">
<path d="M245.742 104.909L136.314 43L65 90.6121L168.405 149.114C170.494 150.295 173.067 150.295 175.156 149.114L245.743 109.179C247.419 108.23 247.419 105.857 245.742 104.909Z" fill="#EFEFEF"/>
<path d="M166.876 39.5395C166.88 34.7616 163.531 32.8147 159.411 35.2003L89.3773 75.7479C88.245 76.4038 87.3255 78.0012 87.3239 79.3147C87.323 80.6282 88.24 81.1617 89.3731 80.5058L159.407 39.9581C161.265 38.8819 162.775 39.76 162.773 41.9151L162.766 49.7852C164.125 49.7003 165.489 49.6986 166.866 49.7228L166.876 39.5395Z" fill="#FF2C9C"/>
<path d="M89.3475 94.658L159.381 69.0132C163.501 66.6276 166.857 60.7993 166.861 56.0214L166.867 49.7228C165.489 49.6987 164.125 49.7004 162.767 49.7853L162.759 58.3962C162.758 60.5512 161.244 63.1791 159.386 64.2553L89.3524 89.9001C88.2201 90.556 87.2999 92.1525 87.299 93.4668C87.2965 94.7803 88.2143 95.3139 89.3475 94.658Z" fill="#D3008D"/>
<path d="M87.8283 94.7528L173.021 144.29L245.15 101.064L250.873 92.4821L250.279 95.5228L248.741 87.5619L114.852 92.6935L91.2617 91.1661L87.8283 94.7528Z" fill="#D3008D"/>
<path d="M90.6537 79.8033L90.6305 90.342L172.969 138.211L175.194 128.168L90.6537 79.8033Z" fill="#E573B5"/>
<path d="M249.811 84.1733L164.754 34.7225L88.0652 79.5378L87.907 80.639L173.09 130.162L249.811 84.1733Z" fill="#FF2C9C"/>
<path d="M222.695 109.568L242.694 97.647C244.379 96.4567 245.7 94.052 245.702 92.0426L245.717 90.4636C245.717 89.1867 245.186 88.3635 244.367 88.1238L204.999 110.132L172.939 127.556L172.968 138.211L222.695 109.568Z" fill="white"/>
<path d="M175.814 128.529L91.2965 79.3921L89.5048 78.3508L87.8681 77.3994C87.5334 78.0162 87.3239 78.6963 87.323 79.3147C87.3222 79.9606 87.5459 80.4151 87.9054 80.6349L87.9062 80.639L87.9194 80.6465L87.9261 80.6499L173.089 130.161L175.814 128.529Z" fill="#D3008D"/>
<path d="M171.959 143.673L173.021 144.29L173.218 143.951L172.556 143.427L171.959 143.673Z" fill="white"/>
<path d="M171.987 129.519L173.075 130.151L172.803 129.555L171.987 129.519Z" fill="white"/>
<path d="M174.56 125.271L244.593 84.7235C248.714 82.3379 252.062 84.2848 252.057 89.0627L252.043 90.6417C252.038 95.4195 248.683 101.248 244.563 103.633L174.529 144.181C173.397 144.837 172.479 144.303 172.48 142.99C172.48 141.676 173.401 140.079 174.533 139.423L244.567 98.8756C246.426 97.7993 247.938 95.1715 247.94 93.0164L247.955 91.4374C247.956 89.2824 246.446 88.4042 244.588 89.4805L174.555 130.028C173.422 130.684 172.504 130.151 172.505 128.837C172.508 127.524 173.427 125.927 174.56 125.271Z" fill="#FF2C9C"/>
<path d="M143.369 85.9596L179.761 64.8887L211.324 83.2385L174.931 104.309L143.369 85.9596Z" fill="white"/>
<path d="M172.48 142.99C172.481 141.676 173.402 140.079 174.534 139.423L244.568 98.8756C246.427 97.7993 247.939 95.1715 247.941 93.0165L247.956 91.4375C247.957 90.0266 247.308 89.1676 246.34 89.0419C246.652 89.4539 246.834 90.0407 246.833 90.7849L246.818 92.3639C246.817 94.5189 245.303 97.1467 243.445 98.223L173.411 138.771C172.278 139.427 171.359 141.024 171.357 142.337C171.356 143.333 171.884 143.877 172.632 143.798C172.536 143.578 172.48 143.308 172.48 142.99Z" fill="white"/>
<path d="M172.506 128.838C172.508 127.524 173.427 125.927 174.56 125.272L244.593 84.7243C246.368 83.6972 247.997 83.4774 249.279 83.9369C247.91 82.7632 245.817 82.7133 243.471 84.0717L173.437 124.619C172.305 125.275 171.385 126.873 171.384 128.186C171.383 129.182 171.911 129.726 172.659 129.647C172.562 129.426 172.506 129.156 172.506 128.838Z" fill="white"/>
<path d="M162.549 9.75753C162.553 5.01533 159.197 3.08293 155.069 5.45072L84.8934 45.6958C83.7588 46.3468 82.8375 47.9322 82.8358 49.2359C82.835 50.5396 83.7538 51.0692 84.8892 50.4182L155.065 10.1731C156.927 9.10486 158.44 9.97646 158.438 12.1154L158.431 19.9268C159.793 19.8425 161.159 19.8409 162.539 19.8649L162.549 9.75753Z" fill="#D4ECFF"/>
<path d="M84.8635 64.4647L155.039 39.0113C159.168 36.6435 162.53 30.8587 162.534 26.1165L162.54 19.8649C161.16 19.8409 159.793 19.8426 158.431 19.9268L158.424 28.4735C158.422 30.6125 156.906 33.2207 155.044 34.2889L84.8685 59.7423C83.7339 60.3933 82.8126 61.9787 82.8109 63.2824C82.8092 64.5861 83.7289 65.1157 84.8635 64.4647Z" fill="#5793CE"/>
<path d="M83.3421 64.5588L168.708 113.726L240.982 70.8228L246.717 62.305L246.122 65.323L244.58 57.4216L110.42 62.5149L86.7825 60.9989L83.3421 64.5588Z" fill="#5793CE"/>
<path d="M86.1732 49.7209L86.15 60.1802L168.655 107.693L170.884 97.7245L86.1732 49.7209Z" fill="#86B8E0"/>
<path d="M245.653 54.0582L160.423 4.9765L83.5795 49.4573L83.421 50.5495L168.776 99.704L245.653 54.0582Z" fill="#D4ECFF"/>
<path d="M218.482 79.2638L238.521 67.4314C240.21 66.2508 241.533 63.864 241.535 61.8688L241.55 60.3016C241.551 59.0343 241.018 58.2172 240.198 57.9792L200.75 79.8231L168.625 97.1172L168.654 107.693L218.482 79.2638Z" fill="white"/>
<path d="M171.506 98.083L86.8173 49.3127L85.022 48.2792L83.382 47.3349C83.0466 47.9471 82.8366 48.6221 82.8358 49.2359C82.835 49.877 83.0591 50.3281 83.4193 50.5462L83.4201 50.5503L83.4334 50.5578L83.4401 50.5611L168.776 99.704L171.506 98.083Z" fill="#5793CE"/>
<path d="M167.644 113.113L168.708 113.726L168.904 113.389L168.241 112.87L167.644 113.113Z" fill="white"/>
<path d="M167.671 99.0653L168.762 99.6932L168.488 99.1009L167.671 99.0653Z" fill="white"/>
<path d="M170.249 94.8494L240.425 54.6043C244.553 52.2366 247.909 54.169 247.904 58.9112L247.889 60.4784C247.885 65.2206 244.522 71.0054 240.394 73.3732L170.218 113.618C169.084 114.269 168.164 113.74 168.165 112.436C168.166 111.132 169.088 109.547 170.222 108.896L240.398 68.6508C242.26 67.5826 243.776 64.9744 243.778 62.8354L243.793 61.2682C243.794 59.1293 242.281 58.2577 240.42 59.3259L170.244 99.571C169.109 100.222 168.19 99.6924 168.191 98.3887C168.192 97.0858 169.113 95.5004 170.249 94.8494Z" fill="#D4ECFF"/>
<path d="M138.994 55.8304L175.461 34.9177L207.088 53.1305L170.621 74.0433L138.994 55.8304Z" fill="white"/>
<path d="M168.166 112.436C168.166 111.132 169.089 109.547 170.223 108.896L240.399 68.6508C242.261 67.5826 243.777 64.9744 243.779 62.8354L243.794 61.2682C243.794 59.8679 243.145 59.0153 242.174 58.8905C242.486 59.2995 242.67 59.8819 242.669 60.6205L242.654 62.1877C242.652 64.3267 241.136 66.9349 239.274 68.0031L169.099 108.248C167.964 108.899 167.043 110.484 167.041 111.788C167.04 112.776 167.569 113.317 168.318 113.238C168.221 113.019 168.165 112.752 168.166 112.436Z" fill="white"/>
<path d="M168.191 98.3896C168.193 97.0859 169.114 95.5005 170.249 94.8494L240.425 54.6044C242.202 53.5849 243.835 53.3668 245.12 53.8228C243.748 52.6579 241.651 52.6084 239.301 53.9567L169.125 94.2017C167.99 94.8527 167.068 96.4382 167.068 97.7418C167.067 98.7299 167.595 99.2703 168.345 99.1918C168.247 98.9728 168.191 98.7052 168.191 98.3896Z" fill="white"/>
<path d="M96.6102 190.403L39.3931 157.969C33.8349 154.819 34.5324 149.316 40.9496 145.678C47.3668 142.04 57.0747 141.645 62.6329 144.795L119.85 177.229C125.407 180.379 124.711 185.882 118.293 189.519C111.875 193.158 102.168 193.553 96.6102 190.403Z" fill="#EFEFEF"/>
<path d="M133.887 166.338L76.6695 133.905C71.1113 130.754 71.8089 125.252 78.2261 121.613C84.6433 117.976 94.3511 117.581 99.9093 120.731L157.126 153.165C162.684 156.315 161.987 161.817 155.57 165.455C149.152 169.093 139.444 169.488 133.887 166.338Z" fill="#EFEFEF"/>
<path d="M71.9788 121.202C68.1606 123.367 68.1615 126.888 71.9788 129.052L136.875 165.838C137.925 166.434 139.627 166.434 140.677 165.838C141.726 165.243 141.726 164.279 140.677 163.683L75.7801 126.897C74.0578 125.921 74.0578 124.333 75.7801 123.357L82.0688 119.792C81.3696 118.76 80.7355 117.686 80.1157 116.59L71.9788 121.202Z" fill="#D4ECFF"/>
<path d="M163.893 150.524L98.9962 113.737C95.178 111.573 88.9662 111.573 85.148 113.737L80.1157 116.59C80.7363 117.686 81.3704 118.759 82.0688 119.792L88.9493 115.892C90.6716 114.916 93.4726 114.916 95.1949 115.892L160.092 152.679C161.141 153.274 162.844 153.274 163.893 152.679C164.942 152.084 164.942 151.119 163.893 150.524Z" fill="#5793CE"/>
<path d="M164.673 151.678L164.68 62.0829L96.6711 24.8614L87.1603 24.2454L77.964 30.0943L72.3195 34.9172L138.581 138.081L160.215 150.599L164.673 151.678Z" fill="#5793CE"/>
<path d="M139.522 162.993L159.849 151.47V64.882L138.894 74.4455L139.522 162.993Z" fill="#79B1E0"/>
<path d="M69.1169 35.6103V125.059L140.511 165.153L141.464 164.778V75.1985L69.1169 35.6103Z" fill="#D4ECFF"/>
<path d="M109.271 36.3507L95.0824 28.3469C93.3501 27.5592 90.8161 27.609 89.2106 28.5196L76.0414 35.9847C75.0209 36.5632 74.6108 37.356 74.7993 38.1089L110.653 59.1435L139.452 76.4992L159.85 64.8828L109.271 36.3507Z" fill="white"/>
<path d="M138.894 73.7922V162.673V164.558V166.278C139.542 166.262 140.182 166.119 140.677 165.838C141.192 165.546 141.452 165.164 141.46 164.781L141.463 164.778V164.764V164.758V75.1984L138.894 73.7922Z" fill="#5793CE"/>
<path d="M164.68 63.2002V62.0829H164.316L164.206 62.8416L164.68 63.2002Z" fill="white"/>
<path d="M141.462 76.3589V75.2142L141.112 75.6998L141.462 76.3589Z" fill="white"/>
<path d="M136.875 76.2585L71.9788 39.4719C68.1606 37.3078 68.1606 33.7865 71.9788 31.6225L85.148 24.1574C88.9662 21.9933 95.178 21.9933 98.9962 24.1574L163.893 60.944C164.942 61.5392 164.942 62.5037 163.893 63.0989C162.844 63.6941 161.141 63.6941 160.092 63.0989L95.1949 26.3123C93.4726 25.3361 90.6716 25.3361 88.9493 26.3123L75.7801 33.7774C74.0578 34.7536 74.0578 36.3416 75.7801 37.3178L140.677 74.1044C141.726 74.6995 141.726 75.6641 140.677 76.2593C139.627 76.8536 137.926 76.8536 136.875 76.2585Z" fill="#D4ECFF"/>
<path d="M119.962 118.666L86.2395 99.551V66.3587L119.962 85.475V118.666Z" fill="white"/>
<path d="M163.893 63.0989C162.844 63.6941 161.141 63.6941 160.092 63.0989L95.1949 26.3123C93.4726 25.3362 90.6716 25.3362 88.9493 26.3123L75.7801 33.7774C74.6531 34.4166 74.2684 35.3172 74.6176 36.1374C74.8019 35.7049 75.1857 35.294 75.7801 34.9578L88.9493 27.4927C90.6716 26.5165 93.4726 26.5165 95.1949 27.4927L160.092 64.2793C161.141 64.8745 162.844 64.8745 163.893 64.2793C164.688 63.8286 164.878 63.1662 164.468 62.6117C164.336 62.7885 164.146 62.9553 163.893 63.0989Z" fill="white"/>
<path d="M140.677 76.2593C139.628 76.8536 137.925 76.8536 136.875 76.2593L71.9788 39.4727C70.3343 38.5405 69.4026 37.3568 69.1752 36.1382C68.8734 37.7494 69.8059 39.4212 71.9788 40.6531L136.875 77.4397C137.925 78.0348 139.628 78.0348 140.677 77.4397C141.472 76.9889 141.662 76.3265 141.252 75.772C141.121 75.948 140.931 76.1148 140.677 76.2593Z" fill="white"/>
<path d="M34.2982 144.15C30.48 146.314 30.4809 149.835 34.2982 151.999L99.1949 188.786C100.244 189.381 101.947 189.381 102.996 188.786C104.045 188.19 104.045 187.226 102.996 186.631L38.0995 149.844C36.3773 148.868 36.3773 147.28 38.0995 146.304L44.3882 142.739C43.6898 141.707 43.0549 140.633 42.4351 139.537L34.2982 144.15Z" fill="#FF2C9C"/>
<path d="M126.211 173.471L61.3147 136.685C57.4966 134.52 51.2848 134.52 47.4666 136.685L42.4343 139.537C43.0549 140.633 43.689 141.707 44.3874 142.739L51.2679 138.839C52.9901 137.863 55.7912 137.863 57.5135 138.839L122.41 175.626C123.459 176.221 125.162 176.221 126.211 175.626C127.261 175.031 127.261 174.066 126.211 173.471Z" fill="#D3008D"/>
<path d="M126.992 174.625L126.999 85.0301L58.9905 47.8086L49.4797 47.1926L40.2825 53.0415L34.6389 57.8644L100.9 161.028L122.534 173.547L126.992 174.625Z" fill="#D3008D"/>
<path d="M101.84 185.94L122.168 174.418V87.8292L101.214 97.3928L101.84 185.94Z" fill="#E573B5"/>
<path d="M31.4363 58.5575V148.006L102.83 188.1L103.782 187.726V98.1457L31.4363 58.5575Z" fill="#FF2C9C"/>
<path d="M71.5907 59.2979L57.4019 51.2941C55.6695 50.5064 53.1356 50.5562 51.53 51.4668L38.3608 58.9319C37.3403 59.5104 36.9302 60.3032 37.1188 61.0561L72.9723 82.0907L101.772 99.4464L122.169 87.83L71.5907 59.2979Z" fill="white"/>
<path d="M101.214 96.7395V185.62V187.505V189.226C101.862 189.209 102.502 189.066 102.996 188.786C103.512 188.493 103.771 188.112 103.78 187.728L103.782 187.726V187.712V187.706V98.1465L101.214 96.7395Z" fill="#D3008D"/>
<path d="M126.999 86.1475V85.0302H126.636L126.525 85.7889L126.999 86.1475Z" fill="white"/>
<path d="M103.781 99.3061V98.1614L103.431 98.6479L103.781 99.3061Z" fill="white"/>
<path d="M99.1949 99.2057L34.2982 62.4191C30.48 60.255 30.48 56.7337 34.2982 54.5697L47.4674 47.1046C51.2856 44.9406 57.4974 44.9406 61.3156 47.1046L126.212 83.8912C127.261 84.4864 127.261 85.451 126.212 86.0461C125.163 86.6413 123.46 86.6413 122.411 86.0461L57.5143 49.2595C55.7921 48.2834 52.991 48.2834 51.2687 49.2595L38.0995 56.7246C36.3773 57.7008 36.3773 59.2888 38.0995 60.265L102.996 97.0516C104.045 97.6467 104.045 98.6113 102.996 99.2065C101.947 99.8008 100.244 99.8008 99.1949 99.2057Z" fill="#FF2C9C"/>
<path d="M82.2819 141.614L48.559 122.498V89.306L82.2819 108.422V141.614Z" fill="white"/>
<path d="M126.211 86.047C125.162 86.6422 123.459 86.6422 122.41 86.047L57.5135 49.2604C55.7912 48.2842 52.9901 48.2842 51.2679 49.2604L38.0987 56.7246C36.9708 57.3638 36.5869 58.2645 36.9361 59.0846C37.1204 58.6521 37.5043 58.2412 38.0987 57.9042L51.2679 50.4391C52.9901 49.4629 55.7912 49.4629 57.5135 50.4391L122.41 87.2257C123.459 87.8209 125.162 87.8209 126.211 87.2257C127.007 86.775 127.196 86.1117 126.786 85.5581C126.655 85.7365 126.466 85.9025 126.211 86.047Z" fill="white"/>
<path d="M102.996 99.2065C101.947 99.8009 100.244 99.8009 99.1949 99.2065L34.2982 62.4199C32.6538 61.4878 31.722 60.304 31.4938 59.0854C31.1928 60.6967 32.1245 62.3685 34.2982 63.6003L99.1949 100.387C100.244 100.982 101.947 100.982 102.996 100.387C103.792 99.9362 103.981 99.2738 103.571 98.7193C103.44 98.8961 103.251 99.0621 102.996 99.2065Z" fill="white"/>
<path d="M92.5462 218.114L7.0873 169.651C5.23978 168.603 5.47083 166.773 7.60527 165.562C9.73889 164.352 12.9668 164.221 14.8152 165.269L100.274 213.733C102.122 214.781 101.891 216.611 99.7561 217.821C97.6225 219.031 94.3945 219.162 92.5462 218.114Z" fill="#EFEFEF"/>
<path d="M0.859121 154.864C0.922512 154.756 1.04846 154.7 1.17274 154.726L5.23061 155.549L3.66251 158.23L0.894987 155.201C0.810744 155.108 0.79573 154.972 0.859121 154.864Z" fill="#D4ECFF"/>
<path d="M2.47559 156.814C2.47392 156.24 2.88263 155.542 3.38809 155.253C3.62164 155.12 3.83266 155.103 3.99531 155.174C8.67375 155.091 13.288 156.256 17.3458 158.546L17.6394 158.712L12.6949 167.165L11.2002 166.212C8.0365 164.195 5.35989 161.523 3.35806 158.382L2.71164 157.369C2.56734 157.268 2.47643 157.08 2.47559 156.814Z" fill="#5793CE"/>
<path d="M11.6623 164.937C11.6573 162.738 13.2229 160.062 15.1588 158.959C17.0948 157.856 18.6679 158.744 18.672 160.942C18.677 163.14 17.1114 165.816 15.1755 166.919C13.2404 168.023 11.6673 167.135 11.6623 164.937Z" fill="#D4ECFF"/>
<path d="M51.9683 190.351L12.6958 167.166L17.6403 158.712L57.8111 180.362L51.9683 190.351Z" fill="#D4ECFF"/>
<path d="M50.748 187.717C50.7422 185.119 52.5922 181.957 54.8793 180.654C57.1664 179.35 59.0255 180.399 59.0314 182.997C59.0372 185.594 57.1872 188.756 54.8993 190.06C52.6122 191.363 50.753 190.314 50.748 187.717Z" fill="#D4ECFF"/>
<path d="M52.4604 188.683C52.4546 186.086 54.3046 182.924 56.5925 181.62C58.8796 180.317 60.7388 181.365 60.7438 183.963C60.7496 186.561 58.8996 189.723 56.6125 191.026C54.3246 192.33 52.4662 191.28 52.4604 188.683Z" fill="#D4ECFF"/>
<path d="M53.6912 191.312L59.5342 181.324L99.2569 203.741L93.4139 213.73L53.6912 191.312Z" fill="#D4ECFF"/>
<path d="M92.1817 211.1C92.1758 208.503 94.0258 205.341 96.3129 204.037C98.6 202.734 100.459 203.783 100.465 206.38C100.471 208.978 98.6209 212.14 96.3338 213.443C94.0459 214.747 92.1875 213.698 92.1817 211.1Z" fill="#D4ECFF"/>
<path d="M93.6638 210.256C93.7397 208.722 94.9909 206.8 96.4597 205.963C97.9286 205.126 99.0579 205.691 98.982 207.224C98.907 208.758 97.655 210.68 96.1861 211.517C94.7181 212.355 93.5888 211.79 93.6638 210.256Z" fill="#396CAA"/>
<path d="M50.4461 187.546C50.4402 184.949 52.2902 181.787 54.5773 180.483C56.8644 179.18 58.7236 180.228 58.7294 182.826C58.7353 185.423 56.8853 188.586 54.5973 189.889C52.3103 191.193 50.4511 190.144 50.4461 187.546Z" fill="#5793CE"/>
<path d="M50.4461 187.546C50.4402 184.949 52.2902 181.787 54.5782 180.483C55.4998 179.958 56.3481 179.82 57.0379 180.006C56.2839 179.247 55.0578 179.169 53.6715 179.958C51.3844 181.261 49.5344 184.424 49.5394 187.021C49.5427 188.572 50.21 189.566 51.2318 189.841C50.7405 189.348 50.4477 188.569 50.4461 187.546Z" fill="white"/>
<path d="M51.677 190.177L57.52 180.188L59.7708 181.458L53.9278 191.447L51.677 190.177Z" fill="#5793CE"/>
<path d="M52.6964 188.817C52.6906 186.22 54.5406 183.057 56.8277 181.754C59.1148 180.45 60.974 181.499 60.9798 184.097C60.9857 186.694 59.1357 189.856 56.8477 191.16C54.5606 192.463 52.7023 191.414 52.6964 188.817Z" fill="#D4ECFF"/>
<path d="M95.5347 211.39L98.0554 207.081L106.475 211.833C107.687 212.517 108.104 214.036 107.408 215.225C106.712 216.416 105.165 216.825 103.954 216.142L95.5347 211.39Z" fill="#FF2C9C"/>
<path d="M95.0084 210.254C95.0059 209.133 95.8041 207.769 96.7909 207.206C97.7776 206.644 98.58 207.097 98.5817 208.217C98.5842 209.338 97.7859 210.702 96.7992 211.265C95.8125 211.828 95.0109 211.375 95.0084 210.254Z" fill="#FF2C9C"/>
<path d="M85.5523 195.219L86.8001 194.508C87.5174 194.1 88.4716 194.191 89.4884 194.765L93.8148 197.206C94.6314 197.667 95.2978 198.795 95.2995 199.72L95.3037 201.834C95.3045 202.189 95.4864 202.595 95.7474 202.892L95.5965 203.873L96.6624 203.26L96.6599 203.258C96.8142 203.18 96.911 203.001 96.911 202.741L96.9068 200.627C96.9026 198.697 95.5139 196.346 93.8115 195.385L89.485 192.944C88.0396 192.128 86.6816 191.999 85.6615 192.58L84.4137 193.292C83.6973 193.7 82.7422 193.609 81.7255 193.035L64.2854 183.193C64.0602 183.066 63.8575 183.057 63.7115 183.144V183.142L62.6472 183.755L63.5672 184.093C63.6982 184.47 63.9709 184.835 64.2887 185.015L81.728 194.857C83.1751 195.672 84.533 195.8 85.5523 195.219Z" fill="#5793CE"/>
<path d="M85.7208 195.129C86.4381 194.721 87.3923 194.812 88.4091 195.386L92.7355 197.827C93.5521 198.288 94.2185 199.416 94.2202 200.341L94.2244 202.455C94.2252 202.958 94.5864 203.569 95.0301 203.819C95.4738 204.07 95.8325 203.865 95.8317 203.362L95.8275 201.248C95.8233 199.318 94.4346 196.968 92.7322 196.007L88.4057 193.565C86.9602 192.749 85.6023 192.621 84.5822 193.202L83.3344 193.913C82.6179 194.321 81.6629 194.231 80.6461 193.656L63.206 183.814C62.7623 183.564 62.4036 183.768 62.4045 184.271C62.4053 184.774 62.7665 185.385 63.2102 185.636L80.6495 195.478C82.095 196.294 83.4529 196.423 84.473 195.842L85.7208 195.129Z" fill="#5793CE"/>
<path d="M102.442 221.573L94.4679 217.051C93.5062 216.505 93.6271 215.553 94.7373 214.923C95.8475 214.293 97.5274 214.225 98.4891 214.771L106.463 219.293C107.425 219.839 107.304 220.791 106.194 221.421C105.083 222.05 103.404 222.119 102.442 221.573Z" fill="#EFEFEF"/>
<path d="M149.767 216.691L135.597 208.932L180.184 184.519L194.354 192.278L149.767 216.691Z" fill="#EFEFEF"/>
<path d="M184.904 190.163L182.466 188.828L200.664 178.726L203.102 180.061L184.904 190.163Z" fill="#EFEFEF"/>
<path d="M139.751 217.05C141.76 217.05 143.389 215.506 143.389 213.601C143.389 211.696 141.76 210.151 139.751 210.151C137.743 210.151 136.114 211.696 136.114 213.601C136.114 215.506 137.743 217.05 139.751 217.05Z" fill="#EFEFEF"/>
<path opacity="0.5" d="M241.367 144.944C229.514 138.455 210.295 138.454 198.443 144.944C193.528 147.635 190.658 151.019 189.819 154.521C190.559 157.61 192.885 160.606 196.794 163.117C197.771 162.36 198.867 161.635 200.106 160.957C211.96 154.467 231.177 154.467 243.031 160.958C243.615 161.277 244.161 161.61 244.687 161.949C247.597 159.7 249.364 157.145 249.993 154.523C249.152 151.02 246.281 147.635 241.367 144.944Z" fill="#D4ECFF"/>
<path d="M249.799 155.135C248.784 158.417 245.994 161.567 241.368 164.099C229.515 170.589 210.297 170.589 198.443 164.099C195.503 162.489 193.31 160.628 191.831 158.645C183.498 166.32 185.359 176.391 197.419 182.994C211.682 190.803 234.806 190.803 249.069 182.995C263.079 175.323 263.315 162.972 249.799 155.135Z" fill="#EFEFEF"/>
<path d="M189.098 159.703L193.73 153.977L207.791 147.781L219.905 146.761L234.092 148.408L243.935 153.232L250.221 157.037L251.352 150.84L249.229 143.702C249.229 143.702 243.853 140.33 243.521 140.016C243.19 139.701 230.95 135.545 230.95 135.545L218.709 134.761L208.866 135.937L198.858 138.761L192.242 143.153L187.279 149.115L186.721 156.566L189.098 159.703Z" fill="#D3008D"/>
<path d="M254.75 152.348V164.409L251.351 159.18L254.75 152.348Z" fill="#D3008D"/>
<path d="M198.442 152.975C210.295 146.485 229.513 146.485 241.366 152.975C245.095 155.016 247.648 157.457 249.031 160.046C250.076 159.159 251.42 158.463 251.979 157.269C250.28 155.078 247.808 153.022 244.544 151.236C230.936 143.785 208.873 143.785 195.265 151.235C192.286 152.865 189.96 154.718 188.286 156.695C188.834 157.911 189.665 159.085 190.773 160.055C192.154 157.463 194.709 155.019 198.442 152.975Z" fill="#D3008D"/>
<path opacity="0.5" d="M241.367 144.944C229.514 138.455 210.295 138.454 198.443 144.944C193.528 147.635 190.658 151.019 189.819 154.521C190.658 158.024 193.528 161.408 198.443 164.099C210.296 170.589 229.514 170.59 241.367 164.099C246.281 161.408 249.152 158.024 249.99 154.522C249.152 151.02 246.281 147.635 241.367 144.944Z" fill="#D4ECFF"/>
<path d="M251.979 157.269C251.742 157.777 251.358 158.192 250.92 158.573L250.909 158.447L247.766 160.226L243.907 163.625L238.558 165.873L231.17 168.383L224.608 169.847L215.565 170.213L209.721 169.638L198.141 166.762L190.595 160.436C190.656 160.309 190.706 160.181 190.773 160.055C189.665 159.085 188.834 157.911 188.286 156.695C188.082 156.937 187.889 157.18 187.704 157.424L185.059 152.199V164.726L185.065 164.715C185.059 169.601 188.456 174.488 195.265 178.216C208.873 185.667 230.936 185.667 244.544 178.217C254.889 172.554 257.361 164.217 251.979 157.269Z" fill="#D3008D"/>
<path d="M193.316 162.717L190.595 160.436C190.656 160.309 190.706 160.181 190.773 160.055C189.665 159.085 188.834 157.911 188.286 156.695C188.082 156.937 187.889 157.18 187.704 157.424L185.059 152.199V164.726L185.065 164.715C185.06 169.107 187.814 173.498 193.315 177.05V162.717H193.316Z" fill="#FF2C9C"/>
<path fill-rule="evenodd" clip-rule="evenodd" d="M195.265 138.857C208.873 131.406 230.936 131.406 244.544 138.858C258.153 146.309 258.153 158.389 244.545 165.839C230.937 173.29 208.874 173.29 195.265 165.838C181.657 158.387 181.656 146.307 195.265 138.857ZM198.443 164.099C210.296 170.589 229.514 170.589 241.367 164.099C253.221 157.61 253.221 147.087 241.366 140.597C229.513 134.108 210.295 134.108 198.442 140.597C186.589 147.087 186.589 157.61 198.443 164.099Z" fill="#FF2C9C"/>
<path d="M172.473 179.512L191.786 168.854L194.354 172.799L174.952 183.515L172.473 179.512Z" fill="#D4ECFF"/>
<path d="M174.926 183.531C175.602 183.161 175.602 181.961 174.926 180.85C174.25 179.74 173.154 179.14 172.478 179.51C171.802 179.88 171.802 181.08 172.478 182.191C173.154 183.301 174.25 183.901 174.926 183.531Z" fill="#983BE9"/>
<path d="M174.926 183.531C175.602 183.161 175.602 181.961 174.926 180.85C174.25 179.74 173.154 179.14 172.478 179.51C171.802 179.88 171.802 181.08 172.478 182.191C173.154 183.301 174.25 183.901 174.926 183.531Z" fill="#983BE9"/>
<path d="M194.763 171.799C194.763 172.846 193.988 173.27 193.032 172.747C192.075 172.223 191.301 170.95 191.301 169.903C191.301 168.856 192.076 168.432 193.032 168.955C193.989 169.479 194.763 170.752 194.763 171.799Z" fill="#D4ECFF"/>
<path d="M184.945 183.234C184.945 178.729 181.61 173.251 177.496 170.998C175.39 169.845 173.492 169.767 172.136 170.563L172.134 170.559L131.302 193.065L141.971 210.288L182.373 187.982C182.65 187.87 182.91 187.728 183.149 187.553L183.183 187.535L183.181 187.533C184.28 186.713 184.945 185.241 184.945 183.234Z" fill="#5793CE"/>
<path d="M134.257 197.834L179.957 172.812C179.185 172.093 178.359 171.471 177.495 170.998C175.389 169.845 173.491 169.767 172.136 170.563L172.133 170.559L131.301 193.065L134.257 197.834Z" fill="#D4ECFF"/>
<path d="M141.894 210.33C144.803 208.737 144.803 203.572 141.894 198.794C138.985 194.016 134.269 191.434 131.36 193.027C128.451 194.62 128.451 199.784 131.36 204.562C134.269 209.34 138.985 211.923 141.894 210.33Z" fill="#D4ECFF"/>
<path d="M133.185 208.253C135.865 208.253 138.037 206.193 138.037 203.651C138.037 201.11 135.865 199.049 133.185 199.049C130.505 199.049 128.332 201.11 128.332 203.651C128.332 206.193 130.505 208.253 133.185 208.253Z" fill="#5793CE"/>
<path d="M130.863 203.324C131.654 203.324 132.296 202.715 132.296 201.964C132.296 201.213 131.654 200.605 130.863 200.605C130.071 200.605 129.429 201.213 129.429 201.964C129.429 202.715 130.071 203.324 130.863 203.324Z" fill="white"/>
<path d="M137.186 193.217C134.985 192.012 133.013 191.984 131.649 192.9C132.971 192.316 134.716 192.469 136.637 193.52C140.751 195.773 144.086 201.251 144.086 205.756C144.086 207.85 143.358 209.357 142.174 210.152C143.681 209.485 144.635 207.855 144.635 205.454C144.635 200.947 141.3 195.47 137.186 193.217Z" fill="white"/>
<path d="M241.367 140.597C229.514 134.108 210.295 134.108 198.443 140.597C192.27 143.977 189.32 148.45 189.576 152.877C189.812 148.803 192.762 144.766 198.443 141.656C210.296 135.167 229.514 135.167 241.367 141.656C247.048 144.767 249.999 148.804 250.234 152.878C250.49 148.451 247.54 143.977 241.367 140.597Z" fill="white"/>
<path d="M244.545 165.839C230.937 173.29 208.874 173.29 195.265 165.838C188.707 162.248 185.319 157.582 185.082 152.877C184.827 157.934 188.216 163.037 195.265 166.897C208.874 174.349 230.937 174.349 244.545 166.898C251.595 163.038 254.983 157.936 254.728 152.878C254.491 157.583 251.103 162.249 244.545 165.839Z" fill="white"/>
<path d="M200.412 101.442C200.412 101.442 202.225 99.4422 204.26 100.596C206.295 101.75 209.812 104.971 210.914 107.638C212.016 110.305 209.751 110.969 208.199 110.834C206.648 110.7 200.702 106.651 200.053 105.659C199.405 104.666 199.342 103.011 199.598 102.584C199.854 102.158 200.412 101.442 200.412 101.442Z" fill="#5793CE"/>
<path d="M200.479 100.146L200.367 102.64C200.343 103.17 200.61 103.676 201.072 103.938C201.494 104.176 202.106 104.359 202.934 104.227C204.752 103.935 204.915 103.417 205.044 100.923C205.174 98.4293 200.479 100.146 200.479 100.146Z" fill="#D4ECFF"/>
<path d="M208.933 96.5317C208.933 96.5317 210.747 94.5321 212.781 95.6861C214.816 96.8402 218.333 100.062 219.435 102.728C220.536 105.395 218.271 106.059 216.72 105.924C215.169 105.79 209.223 101.741 208.574 100.749C207.926 99.7564 207.863 98.1012 208.119 97.6743C208.375 97.2467 208.933 96.5317 208.933 96.5317Z" fill="#5793CE"/>
<path d="M208.791 95.0283L208.679 97.5225C208.655 98.053 208.923 98.5582 209.386 98.8202C209.807 99.0585 210.42 99.2414 211.247 99.1091C213.065 98.8178 213.228 98.2995 213.357 95.8053C213.487 93.3118 208.791 95.0283 208.791 95.0283Z" fill="#D4ECFF"/>
<path d="M187.779 49.5534C188.493 37.9588 200.364 51.2592 200.364 51.2592L208.488 59.2047L215.284 66.9028C216.713 68.4691 217.377 70.5838 217.101 72.683L214.141 95.1687C213.995 96.2795 213.043 97.0981 211.921 97.0891C211.603 97.0867 211.24 97.0581 210.825 96.9928C208.184 96.5823 208.379 94.0783 208.379 94.0783L208.919 73.0478L194.075 64.1278C194.077 64.1278 187.065 61.148 187.779 49.5534Z" fill="#5793CE"/>
<path d="M178.947 53.9705C179.661 42.3759 191.531 55.6763 191.531 55.6763L199.656 63.6218L206.972 71.6407C208.401 73.207 209.065 75.3217 208.789 77.4209L205.829 99.9065C205.683 101.017 204.731 101.836 203.608 101.827C203.291 101.825 202.928 101.796 202.512 101.732C199.872 101.321 200.067 98.8161 200.067 98.8161L200.608 77.7857L185.244 68.5441C185.244 68.545 178.233 65.5659 178.947 53.9705Z" fill="#5793CE"/>
<path d="M185.969 16.7512C176.97 20.4738 177.15 25.7822 177.15 25.7822C177.15 25.7822 178.912 45.2423 178.31 58.2383C178.059 63.6716 207.24 64.0854 202.888 49.5917C197.757 32.5018 199.68 18.666 197.279 16.5798C194.877 14.492 188.297 15.7881 185.969 16.7512Z" fill="#FF2C9C"/>
<path d="M183.074 21.4573C183.545 23.2806 185.939 24.2413 188.422 23.603C190.904 22.9648 192.535 20.97 192.064 19.1467C191.594 17.3234 189.199 16.3627 186.717 17.001C184.234 17.6392 182.603 19.6348 183.074 21.4573Z" fill="#FFC2B0"/>
<path d="M186.678 23.643L188.333 25.437C188.548 25.6696 188.651 25.9846 188.615 26.2988L187.476 36.1207C187.444 36.3958 187.521 36.6733 187.689 36.8928L191.252 41.5434C191.41 41.7499 191.735 41.6927 191.814 41.4454L193.753 35.3543C193.827 35.1233 193.819 34.8752 193.733 34.6491L190.321 25.7283C190.246 25.5333 190.229 25.3202 190.273 25.1162L190.772 22.7509L186.678 23.643Z" fill="white"/>
<path fill-rule="evenodd" clip-rule="evenodd" d="M182.657 21.5642C183.078 23.1974 184.836 24.2282 186.903 24.2282C187.43 24.2282 187.977 24.1613 188.529 24.0193C189.818 23.6879 190.938 23.0023 191.684 22.0906C192.462 21.1406 192.744 20.0567 192.481 19.0398C191.951 16.9903 189.318 15.8901 186.61 16.5847C183.901 17.2817 182.129 19.5156 182.657 21.5642ZM186.823 17.4164C187.311 17.2915 187.794 17.2319 188.256 17.2319C189.927 17.2319 191.325 18.0081 191.648 19.252C191.841 19.9996 191.617 20.8141 191.017 21.5471C190.386 22.3192 189.426 22.9003 188.314 23.1868C186.065 23.7622 183.9 22.9395 183.491 21.3495C183.08 19.7588 184.575 17.9942 186.823 17.4164Z" fill="white"/>
<path d="M189.578 16.3464C189.578 16.3464 189.5 16.7063 189.656 19.5523C189.705 20.4469 186.565 21.2826 185.754 20.473C184.943 19.6633 185.267 18.821 185.073 15.7767C184.878 12.7324 189.578 16.3464 189.578 16.3464Z" fill="#FFC2B0"/>
<path d="M185.073 15.7759C185.073 15.7759 185.846 18.599 189.657 19.6813L189.599 17.116L185.073 15.7759Z" fill="#EA9C92"/>
<path d="M196.001 12.3418C197.116 8.69001 195.054 4.82752 191.394 3.71472C187.734 2.60191 183.863 4.6602 182.747 8.31202C181.632 11.9638 183.695 15.8263 187.355 16.9391C191.015 18.0519 194.886 15.9937 196.001 12.3418Z" fill="#FFC2B0"/>
<path d="M187.774 10.5874C187.774 10.5874 191.588 12.2173 194.228 12.2361C196.87 12.2549 196.287 10.0479 196.287 10.0479L188.448 8.91754L187.774 10.5874Z" fill="#EA9C92"/>
<path d="M195.016 11.0176C195.016 11.0176 191.693 9.61048 188.779 10.1973C188.093 10.3352 187.459 10.7009 187.018 11.242C186.874 11.4191 186.691 11.5799 186.485 11.6264C185.968 11.7431 185.122 9.60313 184.117 9.55498C183.113 9.50682 182.442 10.2161 183.266 11.5318C184.089 12.8474 183.811 14.3206 183.432 14.5312C183.053 14.7426 178.361 11.4754 181.907 4.46612C185.453 -2.54321 195.132 1.42668 196.533 2.84764C196.533 2.84764 198.01 4.13067 199.21 2.98884C199.21 2.98884 200.556 13.0441 195.016 11.0176Z" fill="#396CAA"/>
<path d="M182.199 39.9991V45.2578C182.199 45.8601 182.453 46.4347 182.899 46.8412L193.725 56.6891L192.495 58.5663L177.58 48.8081C176.912 48.325 176.482 47.5822 176.396 46.7644L175.376 37.0062L182.199 39.9991Z" fill="#FFC2B0"/>
<path d="M177.912 23.1525C177.912 23.1525 174.628 28.0805 173.404 41.0537C173.404 41.0537 179.015 42.8639 182.198 41.8364C185.383 40.8088 177.912 23.1525 177.912 23.1525Z" fill="#FF2C9C"/>
<path d="M182.799 29.384C182.799 29.384 184.085 36.2505 184.157 39.4776C184.177 40.3648 183.635 41.1655 182.799 41.4666V29.384Z" fill="#D3008D"/>
<path d="M185.608 63.5262L188 63.2112L203.446 54.3132C203.941 54.0276 204.807 54.0635 205.378 54.3932L216.323 60.6957L217.77 60.5056V61.9429H217.768C217.778 62.1322 217.67 62.3142 217.436 62.4489L199.931 72.5328C199.437 72.8176 198.571 72.7825 197.999 72.4528L186.08 65.5887C185.758 65.4035 185.598 65.1643 185.607 64.9407V63.5262H185.608Z" fill="#D4ECFF"/>
<path d="M197.212 57.9036L198.31 57.2719H210.375L216.322 60.6958L217.769 60.5056V61.9429H217.768C217.777 62.1322 217.669 62.3142 217.435 62.4489L199.931 72.5328C199.669 72.6838 199.304 72.7434 198.933 72.7189L197.212 57.9036Z" fill="#D4ECFF"/>
<path d="M217.127 60.5896L217.769 60.5048V61.942H217.768C217.777 62.1314 217.669 62.3134 217.435 62.4481L217.127 62.626V60.5896Z" fill="#5793CE"/>
<path d="M199.755 72.6144C199.285 72.7924 198.614 72.7532 198.113 72.5124V70.0671H199.755V72.6144Z" fill="#D4ECFF"/>
<path d="M199.931 71.0963L217.436 61.0125C217.931 60.7268 217.869 60.229 217.297 59.8992L205.378 53.0352C204.806 52.7054 203.941 52.6703 203.445 52.9552L185.941 63.039C185.446 63.3247 185.507 63.8226 186.079 64.1523L197.998 71.0164C198.571 71.3461 199.436 71.3812 199.931 71.0963Z" fill="white"/>
<path d="M200.228 69.5676L214.783 61.183C215.194 60.9455 215.143 60.5317 214.667 60.2575L208.281 56.6736C207.805 56.3994 207.086 56.37 206.674 56.6075L192.119 64.9921C191.707 65.2296 191.759 65.6434 192.234 65.9177L198.622 69.5015C199.096 69.7749 199.815 69.8051 200.228 69.5676Z" fill="#D4ECFF"/>
<path d="M204.701 52.7038L204.882 53.9093C205.036 54.936 205.009 55.9816 204.803 56.9993L204.588 58.0612C204.466 58.6603 203.992 59.1247 203.389 59.2348C202.919 59.3205 202.474 58.99 202.421 58.5158L202.132 55.9391C202.132 55.9391 201.471 56.8026 201.153 56.8026C200.834 56.8026 201.509 54.2227 202.231 52.7626C202.951 51.3024 204.701 52.7038 204.701 52.7038Z" fill="#FFC2B0"/>
<path d="M198.767 33.5506L200.645 37.2601C201.09 38.1375 201.351 39.0948 201.414 40.0759L202.23 52.7633L204.701 52.7046L205.823 38.4566C205.857 38.0167 205.836 37.5743 205.759 37.1393L204.478 29.9145L198.767 33.5506Z" fill="#FFC2B0"/>
<path d="M200.524 72.0651L201.992 70.1536L217.426 61.2369C217.921 60.9512 218.322 60.1856 218.321 59.5262L218.308 46.9171L219.196 45.7614L218.361 45.2798L218.361 45.2806C218.201 45.1778 217.989 45.1802 217.755 45.3157L200.263 55.4208C199.768 55.7065 199.367 56.472 199.368 57.1315L199.383 70.8629C199.383 71.2334 199.51 71.4913 199.71 71.595L200.524 72.0651Z" fill="white"/>
<path d="M211.198 64.8346L212.295 64.2012L218.315 53.7689L218.308 46.9171L219.196 45.7614L218.361 45.2798L218.361 45.2806C218.201 45.1778 217.989 45.1802 217.755 45.3157L200.263 55.4208C200.001 55.5718 199.767 55.8575 199.603 56.1896L211.198 64.8346Z" fill="white"/>
<path d="M218.802 46.2739L219.196 45.7606L218.361 45.279L218.361 45.2798C218.201 45.177 217.989 45.1794 217.755 45.3149L217.447 45.4929L218.802 46.2739Z" fill="white"/>
<path d="M200.104 55.5319C199.715 55.8494 199.414 56.4484 199.374 57.0018L201.083 57.9861L201.902 56.5668L200.104 55.5319Z" fill="white"/>
<path d="M201.096 55.9016L218.589 45.7965C219.084 45.5108 219.485 45.8128 219.486 46.4715L219.501 60.2028C219.502 60.8615 219.101 61.6271 218.606 61.9135L201.114 72.0194C200.619 72.3051 200.218 72.0031 200.217 71.3445L200.202 57.6131C200.201 56.9536 200.601 56.1873 201.096 55.9016Z" fill="#D4ECFF"/>
<path d="M219.485 46.4723C219.485 45.9654 219.245 45.6773 218.91 45.6969C218.985 45.8275 219.039 45.9867 219.039 46.2005L219.053 59.9319C219.054 60.5905 218.653 61.3569 218.159 61.6426L200.666 71.7476C200.551 71.8138 200.444 71.8415 200.344 71.8472C200.498 72.1198 200.779 72.212 201.113 72.0194L218.604 61.9135C219.099 61.6279 219.5 60.8615 219.499 60.2036L219.485 46.4723Z" fill="white"/>
<path d="M192.495 58.5656L192.776 59.145C193.099 59.8127 193.606 60.3734 194.238 60.7619L195.976 61.8303C196.516 62.1625 197.2 62.1902 197.749 61.8711C197.769 61.8596 197.788 61.8474 197.808 61.8352C198.36 61.4899 198.41 60.699 197.956 60.233L196.14 58.3705C196.14 58.3705 197.16 59.1508 197.446 58.8365C197.656 58.6064 196.457 57.4833 195.536 57.4466C194.616 57.4099 193.725 56.6884 193.725 56.6884L192.495 58.5656Z" fill="#FFC2B0"/>
<path d="M197.099 16.5521C197.099 16.5521 203.755 23.7785 206.44 30.4075C206.44 30.4075 204.164 34.499 198.592 36.1044C193.022 37.7106 197.099 16.5521 197.099 16.5521Z" fill="#FF2C9C"/>
<path d="M199.846 35.6759L198.767 25.277L201.31 35.0197C200.857 35.2556 200.366 35.4751 199.846 35.6759Z" fill="#D3008D"/>
<path d="M192.114 15.0935L193.903 14.603C193.903 14.603 193.049 15.9432 191.802 16.2852C190.556 16.6271 190.362 15.5743 190.362 15.5743L192.114 15.0935Z" fill="white"/>
<path d="M182.56 12.237C182.56 12.7862 183.006 13.2311 183.556 13.2311C184.107 13.2311 184.552 12.7862 184.552 12.237C184.552 11.6877 184.107 11.2429 183.556 11.2429C183.006 11.2429 182.56 11.6877 182.56 12.237Z" fill="white"/>
</svg>
