<svg width="196" height="271" viewBox="0 0 196 271" fill="none" xmlns="http://www.w3.org/2000/svg">
<path d="M174.397 270.016L99.7518 228.08C97.1572 226.622 97.4821 224.076 100.479 222.392C103.475 220.709 108.008 220.526 110.603 221.984L185.248 263.92C187.843 265.378 187.518 267.925 184.521 269.608C181.525 271.291 176.992 271.474 174.397 270.016Z" fill="#EFEFEF"/>
<path d="M186.02 46.4292L107.542 1.18657C104.964 -0.299504 102.622 -0.336634 100.85 0.779028L100.847 0.761347L91 6.45546L97.6033 7.68517C97.5829 8.02287 97.5634 8.36146 97.5634 8.71861V193.509C97.5634 200.846 102.032 209.368 107.543 212.545L184.919 257.152C184.214 259.359 182.715 264 182.715 264L192.344 258.425L192.341 258.424C194.574 257.275 196 254.398 196 250.256V65.4653C195.999 58.1286 191.532 49.6065 186.02 46.4292Z" fill="#5793CE"/>
<path d="M98 193.19C98 200.56 102.448 209.12 107.936 212.312L184.968 257.12C184.266 259.337 182.774 264 182.774 264L192.36 258.4L192.357 258.399C194.581 257.245 196 254.355 196 250.194V64.5684C196 60.7241 194.783 56.561 192.846 53L98 108.158V193.19Z" fill="#173D7A"/>
<path d="M177.065 263.809L98.9354 218.74C93.4485 215.576 89 207.085 89 199.777V15.694C89 8.38543 93.4485 5.02661 98.9354 8.1908L177.065 53.2601C182.552 56.4243 187 64.9148 187 72.2233V256.306C187 263.615 182.552 266.973 177.065 263.809Z" fill="#D4ECFF"/>
<path d="M177.091 53.3464L99.1677 8.18759C96.3453 6.55249 93.8051 6.6672 92 8.15494C93.6908 7.33871 95.8256 7.4949 98.1521 8.84233L176.075 54.0012C181.548 57.1716 185.984 65.6789 185.984 73.0011V257.449C185.984 260.996 184.938 263.602 183.243 265C185.529 263.896 187 261.004 187 256.795V72.3472C187 65.0242 182.563 56.5178 177.091 53.3464Z" fill="white"/>
<path d="M175.521 258.116L99.4794 214.847C95.3486 212.496 92 206.191 92 200.764V19.4559C92 14.0288 95.3486 11.5344 99.4794 13.8845L175.521 57.1526C179.651 59.5028 183 65.808 183 71.2351V252.543C183.001 257.97 179.652 260.466 175.521 258.116Z" fill="white"/>
<path d="M175.823 257.86L99.1705 214.56C95.0065 212.208 91.631 205.9 91.631 200.468V19.0315C91.631 15.9832 92.695 13.8611 94.3638 13C92.3367 13.6181 91 15.8696 91 19.2859V200.723C91 206.154 94.3755 212.464 98.5395 214.816L175.192 258.115C177.02 259.147 178.695 259.245 180 258.572C178.804 258.935 177.368 258.733 175.823 257.86Z" fill="#5793CE"/>
<path d="M142.999 201L105 179.889V91L122.904 100.947C135.339 107.856 143 120.624 143 134.441V201H142.999Z" fill="#EFEFEF"/>
<path d="M92.1366 83.8835L92.141 83.8905C88.4544 81.6848 83.333 81.9561 77.6751 85.2383C66.4756 91.7361 57.3644 107.594 57.3644 120.589V129.967L57.7489 130.194L94.3412 151.825L94.8952 140.604L95.3513 136.246L97.2912 129.479L97.514 128.444L101.674 120.018L104.952 115.904L107.608 112.721L114.081 107.598L114.65 107.173L117.833 105.798L122.113 104.68H125.451L129.184 105.337L92.1366 83.8835Z" fill="#D4ECFF"/>
<path d="M96.801 170.613L97.9867 169.924V127.2C97.3716 128.043 97.0823 129.125 96.801 130.225V170.613Z" fill="#D4ECFF"/>
<path d="M133.778 192.021L96.801 170.612L97.1819 130.168L98.594 126.082L102.874 118.685L107.938 112.65L112.503 108.98L117.439 105.97L126.395 104.938L131.131 107.633L133.778 111.704L134.612 117.954L134.327 185.56L133.778 192.021Z" fill="#D4ECFF"/>
<path d="M92.1419 83.8905C89.0573 82.0448 84.9662 81.942 80.3997 83.8773L118.075 105.735L122.115 104.68H125.453L129.186 105.337L92.1366 83.8835L92.1419 83.8905Z" fill="#5793CE"/>
<path d="M81.2866 83.5251C80.1139 83.9598 78.9089 84.5235 77.676 85.2391C76.8511 85.7177 76.0402 86.2524 75.2407 86.8276L112.798 108.617L114.083 107.599L114.652 107.174L117.835 105.798L119.105 105.466L81.2866 83.5251Z" fill="#E9F6FF"/>
<path d="M107.928 112.47L113.037 108.427L75.4915 86.6442C73.7919 87.8427 72.1535 89.2485 70.6052 90.8168L107.928 112.47Z" fill="white"/>
<path d="M134.964 191.332L133.778 192.021V119.118C133.778 106.882 125.199 101.905 114.653 108.023C104.108 114.141 95.5279 129.074 95.5279 141.309V151.138L94.3421 151.826V141.998C94.3421 129.003 103.453 113.145 114.653 106.648C125.852 100.15 134.964 105.436 134.964 118.43V191.332Z" fill="#5793CE"/>
<path d="M70 114L67.9351 122.411L68.9676 136L66.3496 134.465L63 127.079L65.9326 117.744L70 114Z" fill="#AEDEED"/>
<path opacity="0.4" fill-rule="evenodd" clip-rule="evenodd" d="M130.896 166.224C131.141 166.356 131.387 166.423 131.62 166.423C131.814 166.423 131.999 166.377 132.167 166.286C132.586 166.06 132.826 165.582 132.826 164.974V144.292C132.826 143.281 132.177 142.139 131.349 141.692L103.213 126.515C102.766 126.274 102.314 126.253 101.941 126.454C101.522 126.68 101.282 127.157 101.282 127.766V148.448C101.282 149.459 101.931 150.601 102.76 151.048L130.896 166.224ZM102.394 127.186C102.423 127.171 102.456 127.164 102.49 127.164C102.592 127.164 102.706 127.219 102.761 127.246L130.897 142.423C131.453 142.723 131.922 143.579 131.922 144.291V164.973C131.922 165.32 131.811 165.502 131.715 165.553C131.604 165.616 131.423 165.531 131.35 165.492L103.214 150.315C102.658 150.015 102.188 149.16 102.188 148.448V127.766C102.188 127.42 102.299 127.238 102.394 127.186Z" fill="white"/>
<path d="M111.495 151.891L111.297 151.784C110.563 151.388 109.969 150.327 109.969 149.414V139.558C109.969 138.644 110.563 138.225 111.297 138.62L111.495 138.727C112.228 139.123 112.823 140.184 112.823 141.097V150.953C112.823 151.867 112.228 152.287 111.495 151.891Z" fill="#B2D3EA"/>
<path d="M117.154 154.943L116.955 154.837C116.222 154.441 115.627 153.38 115.627 152.466V146.698C115.627 145.784 116.221 145.365 116.955 145.76L117.154 145.867C117.887 146.263 118.481 147.324 118.481 148.237V154.006C118.482 154.919 117.887 155.339 117.154 154.943Z" fill="#B2D3EA"/>
<path d="M122.812 157.995L122.614 157.889C121.88 157.493 121.286 156.431 121.286 155.518V141.788C121.286 140.874 121.88 140.454 122.614 140.85L122.812 140.956C123.545 141.352 124.14 142.414 124.14 143.327V157.058C124.141 157.971 123.546 158.391 122.812 157.995Z" fill="#396CAA"/>
<path d="M28.6754 239.411C39.6371 239.411 48.5232 234.348 48.5232 228.101C48.5232 221.855 39.6371 216.792 28.6754 216.792C17.7138 216.792 8.82767 221.855 8.82767 228.101C8.82767 234.348 17.7138 239.411 28.6754 239.411Z" fill="#EFEFEF"/>
<path d="M18.9348 109.404C18.9348 109.404 19.3782 118.418 20.0731 124.476C20.768 130.534 35.5505 119.823 35.5505 119.823V112.926L18.9348 109.404Z" fill="#FF2C9C"/>
<path d="M26.8088 221.559C27.0305 222.106 30.8607 226.709 34.6909 227.859C36.3558 228.36 37.476 228.425 38.2098 228.339C38.9464 228.252 39.4006 227.504 39.1527 226.814C38.4939 224.983 36.6046 221.168 31.8044 218.82C25.3094 215.641 26.8088 221.559 26.8088 221.559Z" fill="#173D7A"/>
<path d="M25.532 223.326C25.532 223.326 26.9753 226.668 27.4195 229.463C27.6901 231.167 26.7427 233.381 25.9627 234.849C25.4786 235.76 24.2508 235.964 23.4789 235.273C22.2275 234.152 20.6341 232.204 20.3699 229.408C19.9256 224.696 20.3699 223.875 20.3699 223.875L25.532 223.326Z" fill="#173D7A"/>
<path d="M16.3053 166.379C16.3053 166.379 15.8059 172.322 16.3053 178.896C16.8048 185.47 18.5937 216.216 18.9267 223.613C18.9267 223.613 18.7602 225.852 23.1523 225.359C27.5444 224.866 27.1906 222.38 27.1906 222.38C27.1906 222.38 33.3589 222.297 33.5535 218.709C33.748 215.121 39.8711 175.856 39.8711 161.74L16.3053 166.379Z" fill="#D4ECFF"/>
<path d="M42.1522 135.647L45.1744 140.267L55.562 152.651C55.562 152.651 55.2046 153.801 53.9116 154.102C52.9009 154.336 44.1646 146.109 40.3905 142.499C39.3879 141.54 39.2214 140.013 39.9923 138.865L42.1522 135.647Z" fill="#FFC2B0"/>
<path d="M36.2563 116.685C36.2563 116.685 41.0574 116.562 42.7286 123.41C44.3999 130.258 45.7074 138.832 44.2533 139.544C39.8901 141.683 37.1294 139.18 37.1294 139.18L36.2563 116.685Z" fill="#5793CE"/>
<path d="M37.6931 116.975C36.8742 116.638 35.9549 116.593 35.1016 116.834C31.0117 117.994 15.6339 122.448 13.0994 124.586C10.1714 127.057 17.4907 140.939 17.3857 145.49C17.2798 150.041 16.7604 155.407 16.3533 160.354C15.9461 165.302 15.3941 168.014 19.4949 170.118C23.5947 172.221 30.5955 172.319 35.8355 168.378C41.0754 164.436 40.1253 161.74 39.9073 158.879C39.6892 156.018 37.9049 143.644 38.0596 140.131C38.0596 140.131 39.9055 138.789 41.2736 136.487C42.6417 134.184 40.2258 129.952 39.2223 127.2C38.2188 124.449 39.7878 121.302 39.4775 119.058C39.3173 117.902 38.569 117.337 37.6931 116.975Z" fill="#5793CE"/>
<path d="M32.7771 121.708C33.1011 124.208 30.7774 126.562 27.5869 126.965C24.3965 127.369 21.5462 125.67 21.2223 123.169C20.8974 120.669 23.2211 118.315 26.4125 117.911C29.6029 117.509 32.4523 119.208 32.7771 121.708Z" fill="white"/>
<path d="M31.1285 121.917C31.3601 123.704 29.6997 125.386 27.4186 125.674C25.1384 125.962 23.1016 124.748 22.8691 122.961C22.6374 121.174 24.2978 119.491 26.5789 119.204C28.8601 118.915 30.8969 120.13 31.1285 121.917Z" fill="#FFC2B0"/>
<path d="M28.8618 116.05C28.8618 116.05 26.0867 113.797 25.5411 114.938C24.9954 116.08 24.5466 120.977 24.5466 120.977L30.0599 122.439L29.2229 117.476C29.2229 117.476 30.3259 116.553 28.8618 116.05Z" fill="#FFC2B0"/>
<path d="M37.4778 110.683C37.21 115.162 33.3137 118.578 28.7759 118.314C24.2381 118.05 20.7762 114.204 21.044 109.725C21.3118 105.247 25.2081 101.83 29.7459 102.094C34.2846 102.358 37.7465 106.204 37.4778 110.683Z" fill="#FFC2B0"/>
<path d="M25.1565 116.357C25.1077 116.613 25.0606 116.888 25.0163 117.167C25.57 119.994 29.8554 121.231 29.8554 121.231L29.222 117.475C29.222 117.475 29.7414 117.041 29.5948 116.606C27.9009 116.078 25.7673 115.611 25.1565 116.357Z" fill="#EA9C92"/>
<path d="M37.4778 110.683C37.21 115.162 33.3137 118.578 28.7759 118.314C24.2381 118.05 20.7762 114.204 21.044 109.725C21.3118 105.247 25.2081 101.83 29.7459 102.094C34.2846 102.358 37.7465 106.204 37.4778 110.683Z" fill="#FFC2B0"/>
<path d="M8.98059 144.593L9.90172 166.333L13.1221 166.661L15.2186 147.09L8.98059 144.593Z" fill="#FFC2B0"/>
<path d="M19.5637 142.776C19.3899 142.018 17.9802 141.396 17.7648 140.409C16.6591 135.344 16.3931 127.876 16.3931 127.876L15.4937 138.078C16.5315 141.104 17.4237 143.88 17.3866 145.49C17.3251 148.161 17.1188 151.114 16.8781 154.097V154.106C16.8772 154.107 20.6287 147.418 19.5637 142.776Z" fill="#396CAA"/>
<path d="M13.7148 124.141C13.7148 124.141 11.1396 125.113 9.68276 132.92C8.22506 140.726 7.13563 148.546 9.73344 149.553C12.3312 150.561 14.5029 151.319 15.2666 149.231C16.0303 147.143 16.5035 137.082 16.5994 133.463C16.6953 129.845 16.8347 124.857 13.7148 124.141Z" fill="#5793CE"/>
<path d="M54.792 151.747C54.792 151.747 56.1863 152.252 57.1943 153.336C58.0214 154.225 58.4747 154.98 58.8357 155.512C59.6374 156.693 60.3143 159.245 59.8256 159.563C59.337 159.881 56.5392 155.289 56.0886 156.357C55.638 157.425 56.0922 158.412 55.5141 158.428C54.9359 158.444 52.9262 153.812 51.3445 152.376C49.7629 150.94 54.792 151.747 54.792 151.747Z" fill="#FFC2B0"/>
<path d="M27.1897 222.38C27.1897 222.38 27.9543 222.37 28.9523 222.2L30.1603 174.407L27.1897 222.38Z" fill="#396CAA"/>
<path d="M22.5288 196.564L20.8151 194.356L2.79597 184.059C2.21867 183.729 1.75087 182.844 1.75177 182.084L1.76716 167.523L0.73111 166.188L1.70472 165.631L1.70563 165.632C1.89203 165.513 2.13995 165.517 2.41231 165.672L22.8329 177.341C23.4101 177.672 23.8779 178.556 23.877 179.317L23.8599 195.174C23.8589 195.602 23.7106 195.9 23.478 196.02L22.5288 196.564Z" fill="#5793CE"/>
<path d="M10.0682 188.215L8.78786 187.483L1.76083 175.436L1.76807 167.524L0.732025 166.189L1.70564 165.632L1.70654 165.633C1.89294 165.514 2.14087 165.518 2.41323 165.673L22.8338 177.342C23.1387 177.516 23.4129 177.847 23.6038 178.231L10.0682 188.215Z" fill="#5793CE"/>
<path d="M1.19169 166.781L0.732025 166.189L1.70564 165.632L1.70654 165.633C1.89294 165.514 2.14087 165.518 2.41323 165.673L2.77336 165.879L1.19169 166.781Z" fill="#5793CE"/>
<path d="M23.0193 177.472C23.4726 177.838 23.8246 178.53 23.8725 179.169L21.8774 180.306L20.9209 178.668L23.0193 177.472Z" fill="#5793CE"/>
<path d="M21.8611 177.899L1.44052 166.23C0.862327 165.899 0.393617 166.248 0.392712 167.009L0.37552 182.866C0.374615 183.627 0.84242 184.511 1.41971 184.841L21.8403 196.51C22.4184 196.841 22.8872 196.492 22.8881 195.731L22.9053 179.873C22.9062 179.113 22.4393 178.229 21.8611 177.899Z" fill="#D4ECFF"/>
<path d="M17.6662 189.272L16.6935 188.717V180.471L17.6662 181.024V189.272Z" fill="white"/>
<path d="M15.3941 187.977L14.4214 187.423V179.176L15.3941 179.73V187.977Z" fill="white"/>
<path d="M13.1221 186.682L12.1494 186.128V177.881L13.1221 178.435V186.682Z" fill="white"/>
<path d="M9.92795 166.151C9.92795 166.151 9.07649 171.226 9.20498 172.851C9.33347 174.476 10.2148 177.157 10.8835 177.1C11.5521 177.043 10.9052 170.565 12.0806 171.21C13.2551 171.855 13.379 172.962 13.9111 172.571C14.4431 172.179 12.9836 166.641 13.3727 164.24C13.7609 161.839 9.92795 166.151 9.92795 166.151Z" fill="#FFC2B0"/>
<path d="M32.4224 110.913C36.5512 112.361 37.3556 111.477 37.3945 111.43C37.4325 111.185 37.4624 110.936 37.4778 110.683C37.5312 109.783 37.4289 108.912 37.2027 108.086L26.4902 106.659C26.4911 106.659 28.1823 109.426 32.4224 110.913Z" fill="#EA9C92"/>
<path d="M37.7746 102.589C36.801 101.765 33.2902 97.6946 26.9988 98.6555C23.0672 99.2557 19.7537 101.903 19.018 107.942C18.5231 112.011 20.036 116.018 22.8229 118.98C22.974 118.911 23.1297 118.848 23.2699 118.757C24.8452 117.734 25.0154 117.171 25.0154 117.166L25.3637 114.084C25.3529 113.647 25.0217 113.257 24.5792 113.231C24.2372 113.209 23.8219 113.048 23.4264 112.537C22.5225 111.37 22.9396 109.552 24.7466 109.484C25.6913 109.448 26.0568 108.944 26.1898 108.471C26.3066 108.06 26.7463 107.83 27.1535 107.976C29.2093 108.71 34.2755 110.293 37.5357 109.381C41.707 108.214 38.7482 103.412 37.7746 102.589Z" fill="#FF2C9C"/>
<path d="M33.0839 114.583L35.602 113.9C35.602 113.9 34.4004 115.767 32.645 116.243C30.8905 116.719 30.6172 115.253 30.6172 115.253L33.0839 114.583Z" fill="white"/>
<path d="M14.2088 172.414L12.0634 171.201L12.8696 172.5L13.9536 172.896L14.2088 172.414Z" fill="#5793CE"/>
<path d="M61.7545 263.626C71.1021 268.833 86.2586 268.832 95.6071 263.626C104.956 258.419 104.956 249.977 95.608 244.77C86.2604 239.563 71.1039 239.564 61.7554 244.77C52.4069 249.977 52.4069 258.419 61.7545 263.626Z" fill="#EFEFEF"/>
<path d="M64.0139 247.131C62.3468 247.819 61.2971 249.612 61.4354 251.539C61.5005 252.449 61.6144 253.296 61.8115 253.695C62.3422 254.769 64.0808 256.244 66.8574 255.185C69.633 254.127 75.7981 248.539 76.0286 244.882C76.4572 238.087 68.4043 245.322 64.0139 247.131Z" fill="#173D7A"/>
<path d="M80.3232 258.369C80.3232 258.369 79.6577 262.286 79.9805 263.005C80.3042 263.723 82.2354 265.255 85.0896 264.924C87.9439 264.592 96.155 261.86 97.984 256.64C100.819 248.547 82.1341 257.247 82.1341 257.247L80.3232 258.369Z" fill="#173D7A"/>
<path d="M88.3462 195.744L88.9818 256.898C88.9149 259.025 87.471 260.822 85.529 261.138C85.2894 261.177 85.0317 261.209 84.7569 261.232C82.7905 261.398 81.645 260.584 80.9913 259.73C80.4615 259.037 80.183 258.159 80.1441 257.26L79.335 231.155L75.2954 207.813L69.7062 249.124C69.6167 250.241 69.0625 251.274 68.1701 251.844C67.5535 252.237 66.7181 252.542 65.6214 252.51C64.0221 252.464 62.9109 251.638 62.2328 250.9C61.6958 250.316 61.4128 249.512 61.4236 248.688L63.6396 223.832L64.4642 192.128L88.3462 195.744Z" fill="#D4ECFF"/>
<path d="M80.1378 141.004L79.1361 146.577C79.1361 146.577 79.0981 148.478 81.2987 149.005C83.4993 149.532 84.1792 148.162 84.1792 148.162L85.1746 141.886L80.1378 141.004Z" fill="#FFC2B0"/>
<path d="M92.2646 137.953C90.7023 142.726 85.868 145.497 81.4668 144.141C77.0656 142.785 74.7647 137.816 76.3261 133.042C77.8884 128.268 82.7227 125.497 87.1239 126.854C91.5251 128.21 93.8269 133.179 92.2646 137.953Z" fill="#FFC2B0"/>
<path d="M80.3991 146.679C80.2463 146.62 71.0633 140.915 67.6683 146.885C62.1334 156.619 66.182 167.78 64.2065 192.012C63.8756 196.067 69.8626 198.538 72.6934 200.097C75.2113 201.485 78.0303 202.336 80.9307 202.358C83.8004 202.381 89.3037 199.919 89.1039 196.3C88.1853 179.653 89.7105 165.622 91.12 152.008C91.12 152.007 89.3588 150.178 80.3991 146.679Z" fill="#5793CE"/>
<path d="M75.2945 207.813L69.7053 249.124C69.6158 250.241 69.0616 251.274 68.1692 251.844C68.0236 251.937 67.8627 252.023 67.6918 252.104C68.8518 251.265 72.2404 216.589 72.867 212.732C73.4944 208.874 75.2945 207.813 75.2945 207.813Z" fill="#396CAA"/>
<path d="M110.177 151.722L117.865 136.999L115.453 135.53L107.484 146.745L110.177 151.722Z" fill="#FFC2B0"/>
<path d="M59.4626 136.089L63.2029 119.673L66.182 119.705L65.0636 133.319L59.4626 136.089Z" fill="#FFC2B0"/>
<path d="M91.12 152.007C91.12 152.007 99.7199 155.279 107.108 146.287C107.759 145.495 109.096 145.583 109.482 146.437C110.146 147.91 110.979 150.137 109.969 152.227C105.504 161.473 90.2665 161.152 86.5959 166.335C82.9243 171.518 91.12 152.007 91.12 152.007Z" fill="#5793CE"/>
<path d="M74.5739 144.634C74.5739 144.634 67.473 145.161 66.4514 139.231C65.9252 136.178 65.767 134.355 65.7372 133.305C65.7173 132.593 65.0772 132.055 64.3448 132.142C62.6442 132.345 60.0114 132.835 59.6543 133.934C59.1209 135.576 58.1182 143.627 65.1314 155.981C69.727 164.075 74.5739 144.634 74.5739 144.634Z" fill="#5793CE"/>
<path d="M63.1885 119.714L63.2563 117.843C63.2798 117.181 63.4796 116.538 63.8367 115.973L65.8032 112.857L66.3167 112.233C66.7904 111.658 67.6376 111.518 68.2822 111.91L68.7343 112.184C69.3111 112.534 69.6429 113.16 69.5995 113.816L68.5824 116.48L69.8689 116.239C70.1194 116.192 70.3608 116.352 70.4051 116.594C70.4431 116.799 70.3273 117.003 70.1266 117.081L68.0255 117.899L66.1178 120.505L63.1885 119.714Z" fill="#FFC2B0"/>
<path d="M117.922 137.092L118.822 135.433C119.139 134.846 119.296 134.191 119.275 133.531L119.162 129.884L119.035 129.097C118.919 128.37 118.253 127.845 117.492 127.878L116.959 127.901C116.278 127.93 115.668 128.316 115.37 128.908L114.89 131.708L113.895 130.886C113.701 130.726 113.41 130.75 113.246 130.938C113.108 131.099 113.105 131.331 113.239 131.494L114.647 133.207L115.011 136.775L117.922 137.092Z" fill="#FFC2B0"/>
<path d="M85.5128 164.481C84.7651 167.769 89.2675 192.571 84.2615 201.641C86.765 200.663 89.2395 198.748 89.1048 196.3C88.4475 184.396 89.0424 173.831 89.9492 163.798C94.2302 161.706 100.921 160.458 105.653 157.114C100.578 158.918 86.18 161.546 85.5128 164.481Z" fill="#396CAA"/>
<path d="M77.0973 145.105L78.3721 143.841C78.3721 143.841 80.4696 145.909 82.1549 146.267C82.1549 146.267 84.1828 146.822 85.1746 146.869L85.9955 149.053C85.9955 149.053 79.316 148.592 77.0973 145.105Z" fill="white"/>
<path d="M86.274 138.101C86.6266 138.095 86.953 137.94 87.1528 137.661C87.5018 137.175 87.2812 134.936 88.3553 134.566C90.0351 133.987 94.0186 136.015 94.4444 130.171C94.6659 127.133 93.1335 126.326 93.1398 124.662C93.1398 124.662 93.2727 125.496 85.171 124.976C77.0693 124.457 74.4347 131.398 74.243 134.704C74.0513 138.01 75.7095 143.446 81.2472 144.192C82.1648 144.316 86.0218 141.325 85.9223 140.932C85.8219 140.54 84.3672 140.561 84.5779 139.42C84.7524 138.468 85.3536 138.117 86.274 138.101Z" fill="#173D7A"/>
<path d="M133.961 223.573L110.543 209.535C109.502 208.911 108.658 207.238 108.658 205.797V187.717C108.658 186.277 109.501 185.614 110.543 186.238L133.961 200.276C135.001 200.9 135.845 202.573 135.845 204.014V222.094C135.845 223.535 135.001 224.197 133.961 223.573Z" fill="#EFEFEF"/>
<path d="M131.644 194.892L108.226 180.854C107.762 180.576 107.344 180.566 107.015 180.753C107.015 180.752 107.017 180.737 107.017 180.737L104.745 182.1C104.745 182.1 105.75 182.481 106.341 182.706V200.412C106.341 201.853 107.184 203.527 108.226 204.151L130.609 217.568V219.646L132.904 218.274L132.892 218.269C133.279 218.024 133.528 217.484 133.528 216.709V198.63C133.527 197.189 132.684 195.516 131.644 194.892Z" fill="#173D7A"/>
<path d="M129.33 219.572L105.912 205.534C104.872 204.91 104.028 203.237 104.028 201.796V183.717C104.028 182.276 104.871 181.614 105.912 182.238L129.33 196.275C130.371 196.9 131.215 198.572 131.215 200.014V218.093C131.215 219.533 130.371 220.195 129.33 219.572Z" fill="#5793CE"/>
<path d="M129.33 196.276L105.912 182.238C105.321 181.883 104.799 181.956 104.454 182.339C104.706 182.318 104.986 182.379 105.285 182.559L128.703 196.597C129.744 197.221 130.588 198.894 130.588 200.335V218.414C130.588 219.035 130.424 219.5 130.162 219.791C130.784 219.737 131.215 219.118 131.215 218.092V200.013C131.215 198.573 130.371 196.9 129.33 196.276Z" fill="white"/>
<path d="M113.787 199.304C113.787 200.35 113.079 200.774 112.207 200.252C111.334 199.729 110.627 198.457 110.627 197.411C110.627 196.364 111.334 195.941 112.207 196.463C113.08 196.986 113.787 198.258 113.787 199.304Z" fill="white"/>
<path d="M118.574 202.173C118.574 203.219 117.866 203.643 116.994 203.121C116.121 202.598 115.414 201.326 115.414 200.279C115.414 199.233 116.121 198.809 116.994 199.332C117.866 199.855 118.574 201.127 118.574 202.173Z" fill="white"/>
<path d="M123.361 205.042C123.361 206.088 122.653 206.512 121.781 205.99C120.908 205.466 120.201 204.195 120.201 203.148C120.201 202.102 120.908 201.678 121.781 202.201C122.653 202.725 123.361 203.997 123.361 205.042Z" fill="white"/>
<path d="M175.745 245.512L150.806 231.569C149.698 230.949 148.799 229.288 148.799 227.856V187.443C148.799 186.012 149.697 185.354 150.806 185.974L175.745 199.917C176.853 200.537 177.752 202.198 177.752 203.63V244.042C177.751 245.475 176.853 246.132 175.745 245.512Z" fill="#EFEFEF"/>
<path d="M173.277 194.569L148.337 180.626C147.844 180.35 147.398 180.34 147.048 180.526C147.048 180.524 147.05 180.511 147.05 180.511L144.63 181.865C144.63 181.865 145.701 182.243 146.331 182.466V222.508C146.331 223.939 147.229 225.602 148.337 226.221L172.175 239.548V241.612L174.619 240.249L174.606 240.245C175.019 240.001 175.284 239.465 175.284 238.695V198.282C175.284 196.85 174.385 195.189 173.277 194.569Z" fill="#D3008D"/>
<path d="M170.814 241.539L145.875 227.596C144.767 226.976 143.868 225.314 143.868 223.883V183.469C143.868 182.039 144.766 181.381 145.875 182L170.814 195.943C171.922 196.563 172.821 198.225 172.821 199.656V240.07C172.82 241.5 171.922 242.159 170.814 241.539Z" fill="#FF2C9C"/>
<path d="M170.814 195.944L145.875 182.001C145.245 181.649 144.689 181.721 144.322 182.102C144.59 182.081 144.888 182.141 145.207 182.321L170.146 196.264C171.254 196.884 172.153 198.545 172.153 199.977V240.389C172.153 241.006 171.979 241.468 171.7 241.757C172.362 241.704 172.821 241.088 172.821 240.07V199.657C172.82 198.226 171.922 196.563 170.814 195.944Z" fill="white"/>
<path d="M161.982 201.421C161.982 203.667 160.354 204.578 158.344 203.454C156.334 202.33 154.706 199.598 154.706 197.352C154.706 195.105 156.334 194.194 158.344 195.318C160.353 196.442 161.982 199.175 161.982 201.421Z" fill="white"/>
<path d="M163.499 207.772C163.494 207.737 163.489 207.702 163.483 207.667C163.328 206.721 162.403 205.89 161.792 206.1C160.849 206.426 159.65 206.266 158.343 205.536C157.036 204.805 155.837 203.623 154.894 202.244C154.284 201.351 153.358 201.148 153.203 201.92C153.198 201.949 153.192 201.977 153.188 202.007L151.462 212.617L165.223 220.311L163.499 207.772Z" fill="white"/>
<path d="M166.199 228.388L149.492 219.047V217.881L166.199 227.222V228.388Z" fill="white"/>
<path d="M161.154 230.662L149.492 224.142V222.976L161.154 229.496V230.662Z" fill="white"/>
<path d="M159.581 227.236L149.492 221.595V220.429L159.581 226.07V227.236Z" fill="white"/>
<path d="M166.199 230.935L161.154 228.115V226.949L166.199 229.769V230.935Z" fill="white"/>
<path d="M175.745 188.434L150.806 174.491C149.698 173.871 148.799 172.209 148.799 170.778V130.364C148.799 128.934 149.697 128.276 150.806 128.895L175.745 142.838C176.853 143.458 177.752 145.12 177.752 146.551V186.965C177.751 188.395 176.853 189.053 175.745 188.434Z" fill="#EFEFEF"/>
<path d="M173.277 137.491L148.337 123.548C147.844 123.272 147.398 123.261 147.048 123.448C147.048 123.446 147.05 123.432 147.05 123.432L144.63 124.786C144.63 124.786 145.701 125.164 146.331 125.387V165.429C146.331 166.86 147.229 168.522 148.337 169.142L172.175 182.469V184.532L174.619 183.17L174.606 183.165C175.019 182.922 175.284 182.386 175.284 181.616V141.203C175.284 139.772 174.385 138.11 173.277 137.491Z" fill="#5793CE"/>
<path d="M170.814 184.46L145.875 170.517C144.767 169.897 143.868 168.236 143.868 166.804V126.392C143.868 124.961 144.766 124.303 145.875 124.923L170.814 138.866C171.922 139.486 172.821 141.147 172.821 142.579V182.992C172.82 184.422 171.922 185.079 170.814 184.46Z" fill="#D4ECFF"/>
<path d="M170.814 138.865L145.875 124.922C145.245 124.57 144.689 124.642 144.322 125.023C144.59 125.001 144.888 125.062 145.207 125.241L170.146 139.184C171.254 139.804 172.153 141.466 172.153 142.896V183.309C172.153 183.926 171.979 184.388 171.7 184.677C172.362 184.624 172.821 184.008 172.821 182.99V142.577C172.82 141.146 171.922 139.485 170.814 138.865Z" fill="white"/>
<path d="M166.237 147.992L149.529 138.651V137.485L166.237 146.826V147.992Z" fill="#5793CE"/>
<path d="M161.193 150.266L149.529 143.745V142.58L161.193 149.1V150.266Z" fill="#5793CE"/>
<path d="M159.619 146.839L149.529 141.198V140.032L159.619 145.673V146.839Z" fill="#5793CE"/>
<path d="M166.237 150.539L161.193 147.719V146.553L166.237 149.373V150.539Z" fill="#5793CE"/>
<path d="M166.237 157.831L149.529 148.491V147.325L166.237 156.665V157.831Z" fill="#5793CE"/>
<path d="M161.193 160.106L149.529 153.586V152.419L161.193 158.94V160.106Z" fill="#5793CE"/>
<path d="M159.619 156.679L149.529 151.038V149.872L159.619 155.513V156.679Z" fill="#5793CE"/>
<path d="M166.237 160.379L161.193 157.558V156.392L166.237 159.213V160.379Z" fill="#5793CE"/>
<path d="M166.237 167.671L149.529 158.33V157.164L166.237 166.505V167.671Z" fill="#5793CE"/>
<path d="M161.193 169.946L149.529 163.425V162.259L161.193 168.78V169.946Z" fill="#5793CE"/>
<path d="M159.619 166.519L149.529 160.878V159.712L159.619 165.352V166.519Z" fill="#5793CE"/>
<path d="M166.237 170.218L161.193 167.398V166.232L166.237 169.053V170.218Z" fill="#5793CE"/>
<path d="M116.086 165.686L105.107 159.364V158.342L116.086 164.663V165.686Z" fill="white"/>
<path d="M122.891 169.603L118.202 166.904V165.882L122.891 168.581V169.603Z" fill="white"/>
<path d="M116.465 168.128L111.776 165.429V164.407L116.465 167.107V168.128Z" fill="white"/>
<path d="M126.619 173.975L118.202 169.129V168.107L126.619 172.954V173.975Z" fill="white"/>
<path d="M132.381 179.518L119.932 172.35V171.329L132.381 178.496V179.518Z" fill="white"/>
<path d="M129.598 173.465L124.909 170.766V169.744L129.598 172.443V173.465Z" fill="white"/>
<path d="M109.796 164.289L105.107 161.589V160.567L109.796 163.267V164.289Z" fill="white"/>
<path d="M117.922 171.192L105.084 163.802V162.78L117.922 170.171V171.192Z" fill="white"/>
<path d="M112.978 170.572L105.234 166.114V165.092L112.978 169.55V170.572Z" fill="white"/>
<path d="M169.206 114.943L107.437 78.1504C103.437 75.7681 100.195 69.3763 100.195 63.8746C100.195 58.3729 103.437 55.8439 107.437 58.2262L169.206 95.0191C173.205 97.4014 176.448 103.793 176.448 109.295C176.447 114.798 173.205 117.326 169.206 114.943Z" fill="#EFEFEF"/>
<path d="M174.927 105.679C174.927 100.177 171.685 93.7853 167.685 91.403L105.916 54.6101C104.055 53.5013 102.363 53.468 101.081 54.2906L101.086 54.2717L98.0436 56.105L99.4428 56.267C98.9552 57.3173 98.6734 58.6574 98.6734 60.2585C98.6734 65.7602 101.916 72.152 105.916 74.5343L167.684 111.327C168.466 111.793 169.218 112.065 169.923 112.17L169.548 113.448L172.549 111.643L172.524 111.644C173.997 110.696 174.927 108.617 174.927 105.679Z" fill="#D3008D"/>
<path d="M164.728 113.104L102.959 76.3108C98.9595 73.9285 95.717 67.5367 95.717 62.035C95.717 56.5333 98.9595 54.0043 102.959 56.3866L164.728 93.1795C168.728 95.5618 171.97 101.954 171.97 107.455C171.97 112.957 168.728 115.486 164.728 113.104Z" fill="#FF2C9C"/>
<path d="M165.342 92.7674L103.573 55.9745C101.538 54.7622 99.7019 54.827 98.3864 55.9025C99.6339 55.2464 101.224 55.3526 102.959 56.3867L164.728 93.1796C168.728 95.5619 171.97 101.954 171.97 107.455C171.97 110.158 171.185 112.137 169.915 113.176C171.544 112.319 172.584 110.159 172.584 107.043C172.584 101.541 169.342 95.1497 165.342 92.7674Z" fill="white"/>
<path d="M147.369 70.9356L108.082 48.9143C103.976 46.6105 100.647 40.4291 100.647 35.1085C100.647 29.7879 103.976 27.3422 108.082 29.6461L147.369 51.6673C151.475 53.9712 154.804 60.1526 154.804 65.4731C154.804 70.7946 151.475 73.2403 147.369 70.9356Z" fill="#EFEFEF"/>
<path d="M152.929 61.9576C152.929 56.637 149.6 50.4557 145.494 48.1518L106.206 26.1306C104.295 25.0583 102.558 25.0261 101.242 25.8216L101.247 25.8033L98.1236 27.5762L99.56 27.7329C99.0594 28.7486 98.7702 30.0446 98.7702 31.593C98.7702 36.9136 102.099 43.0949 106.205 45.3988L145.493 67.4201C146.296 67.8709 147.067 68.1338 147.791 68.2347L147.407 69.4698L150.487 67.7247L150.462 67.7256C151.973 66.8099 152.929 64.8002 152.929 61.9576Z" fill="#5793CE"/>
<path d="M142.458 69.1391L103.17 47.1178C99.0639 44.814 95.7352 38.6326 95.7352 33.312C95.7352 27.9914 99.0639 25.5457 103.17 27.8496L142.458 49.8708C146.564 52.1747 149.893 58.356 149.893 63.6766C149.893 68.9972 146.565 71.4429 142.458 69.1391Z" fill="#D4ECFF"/>
<path d="M143.089 49.4722L103.8 27.4509C101.711 26.2785 99.826 26.3412 98.4755 27.3813C99.7561 26.7468 101.389 26.8495 103.17 27.8496L142.458 49.8708C146.564 52.1747 149.893 58.356 149.893 63.6766C149.893 66.2903 149.087 68.2043 147.783 69.2087C149.455 68.3801 150.523 66.2912 150.523 63.278C150.523 57.9574 147.196 51.776 143.089 49.4722Z" fill="white"/>
<path d="M126.425 49.324L111.033 39.8485V38.665L126.425 48.1406V49.324Z" fill="#5793CE"/>
<path d="M138.655 56.8444L127.911 50.2305V49.0471L138.655 55.6618V56.8444Z" fill="#5793CE"/>
<path d="M120.327 48.1542L111.033 42.4325V41.249L120.327 46.9716V48.1542Z" fill="#5793CE"/>
<path d="M126.425 51.9081L121.777 49.0472V47.8638L126.425 50.7246V51.9081Z" fill="#5793CE"/>
<path d="M160.849 101.585L145.457 92.9321V91.8524L160.849 100.504V101.585Z" fill="white"/>
<path d="M144.024 92.1258L133.279 86.0863V85.0066L144.024 91.0453V92.1258Z" fill="white"/>
<path d="M154.753 100.516L145.457 95.2922V94.2117L154.753 99.4367V100.516Z" fill="white"/>
<path d="M160.849 103.944L156.202 101.331V100.251L160.849 102.863V103.944Z" fill="white"/>
<path d="M144.023 94.4686L139.376 91.8566V90.7769L144.023 93.3889V94.4686Z" fill="white"/>
<path d="M69.6784 105.929L67.268 104.436L67.6661 103.656L70.0766 105.148L69.6784 105.929Z" fill="#5793CE"/>
<path d="M65.1417 103.12L65.5398 102.341L64.6244 101.774C64.4983 102.04 64.3903 102.313 64.2694 102.581L65.1417 103.12Z" fill="#5793CE"/>
<path d="M74.2142 108.736L71.8038 107.244L72.202 106.464L74.6124 107.956L74.2142 108.736Z" fill="#5793CE"/>
<path d="M78.75 111.544L76.3396 110.052L76.7378 109.272L79.1482 110.764L78.75 111.544Z" fill="#5793CE"/>
<path d="M83.2867 114.352L80.8755 112.859L81.2736 112.08L83.684 113.571L83.2867 114.352Z" fill="#5793CE"/>
<path d="M87.8225 117.159L85.4121 115.668L85.8094 114.887L88.2207 116.38L87.8225 117.159Z" fill="#5793CE"/>
<path d="M92.3583 119.968L89.9479 118.475L90.3461 117.695L92.7565 119.187L92.3583 119.968Z" fill="#5793CE"/>
<path d="M96.8942 122.775L94.4838 121.283L94.8819 120.503L97.2923 121.995L96.8942 122.775Z" fill="#5793CE"/>
<path d="M101.431 125.582L99.0196 124.091L99.4177 123.311L101.828 124.803L101.431 125.582Z" fill="#5793CE"/>
<path d="M113.503 112.217L111.138 110.76L111.621 110.055L113.503 111.214V112.217Z" fill="#5793CE"/>
<path d="M117.955 114.958L115.589 113.501V112.499L117.955 113.956V114.958Z" fill="#5793CE"/>
<path d="M122.407 117.7L120.041 116.243V115.24L122.407 116.697V117.7Z" fill="#5793CE"/>
<path d="M126.858 120.441L124.492 118.984V117.981L126.858 119.438V120.441Z" fill="#5793CE"/>
<path d="M131.31 123.182L128.944 121.725V120.723L131.31 122.18V123.182Z" fill="#5793CE"/>
<path d="M135.761 125.924L133.395 124.467V123.465L135.761 124.921V125.924Z" fill="#5793CE"/>
<path d="M132 85L123 79.272V78L132 83.729V85Z" fill="white"/>
</svg>
