<svg width="24" height="25" viewBox="0 0 24 25" fill="none" xmlns="http://www.w3.org/2000/svg">
<path fill-rule="evenodd" clip-rule="evenodd" d="M3.51562 0H20.4844C22.4227 0 24 1.64299 24 3.66211V21.3379C24 23.357 22.4227 25 20.4844 25H3.51562C1.57727 25 0 23.357 0 21.3379V3.66211C0 1.64299 1.57727 0 3.51562 0ZM5.67188 19.8242H8.48438V9.57031H5.67188V19.8242ZM8.48438 8.10547H5.67188V5.17578H8.48438V8.10547ZM15.5156 19.8242H18.3281V13.4613C18.3281 11.3548 16.7199 9.57241 14.8125 9.57031C14.1595 9.57031 13.7281 9.73765 13.2557 9.92085C13.0815 9.98844 12.9017 10.0582 12.7031 10.1225V9.57031H9.89062V19.8242H12.7031V13.9648C12.7031 13.1573 13.3341 12.5 14.1094 12.5C14.8846 12.5 15.5156 13.1573 15.5156 13.9648V19.8242Z" fill="#FB6EA4"/>
</svg>
