<svg width="24" height="25" viewBox="0 0 24 25" fill="none" xmlns="http://www.w3.org/2000/svg">
<path fill-rule="evenodd" clip-rule="evenodd" d="M20.4844 0H3.51562C1.575 0 0 1.64062 0 3.66211V21.3379C0 23.3594 1.575 25 3.51562 25H20.4844C22.425 25 24 23.3594 24 21.3379V3.66211C24 1.64062 22.425 0 20.4844 0ZM5.67188 12.5488C5.67188 16.1816 8.51255 19.1406 12 19.1406C15.4875 19.1406 18.3281 16.1816 18.3281 12.5488C18.3281 8.91597 15.4875 5.95703 12 5.95703C8.51255 5.95703 5.67188 8.91597 5.67188 12.5488ZM19.7344 5.95703C18.9609 5.95703 18.3281 5.29785 18.3281 4.49219C18.3281 3.68652 18.9609 3.02734 19.7344 3.02734C20.5078 3.02734 21.1406 3.68652 21.1406 4.49219C21.1406 5.29785 20.5078 5.95703 19.7344 5.95703ZM7.07812 12.5488C7.07812 9.72168 9.28594 7.42188 12 7.42188C14.7141 7.42188 16.9219 9.72168 16.9219 12.5488C16.9219 15.376 14.7141 17.6758 12 17.6758C9.28594 17.6758 7.07812 15.376 7.07812 12.5488Z" fill="#FB6EA4"/>
</svg>
