<svg width="24" height="25" viewBox="0 0 24 25" fill="none" xmlns="http://www.w3.org/2000/svg">
<path fill-rule="evenodd" clip-rule="evenodd" d="M4.5 0H19.5C21.9858 0 24 2.09808 24 4.6875V20.3125C24 22.9019 21.9858 25 19.5 25H4.5C2.01415 25 0 22.9019 0 20.3125V4.6875C0 2.09808 2.01415 0 4.5 0ZM9.47662 15.7881C9.47662 17.3677 10.5952 19.6119 13.5482 19.5589C14.5444 19.5412 15.6509 19.1069 15.8952 18.7317L15.2433 16.7185C14.9912 16.8438 14.5093 16.9527 14.1498 16.9621C13.0646 16.9924 12.854 16.168 12.8452 15.5704V11.175H15.5674V9.03702H12.8546V5.44014H10.8695C10.8369 5.44014 10.7798 5.46989 10.7717 5.54562C10.6556 6.64635 10.1613 8.57849 8.10461 9.35097V11.1748H9.47662V15.7881Z" fill="#FB6EA4"/>
</svg>
