<svg width="24" height="25" viewBox="0 0 24 25" fill="none" xmlns="http://www.w3.org/2000/svg">
<path fill-rule="evenodd" clip-rule="evenodd" d="M4.5 0H19.5C21.9858 0 24 2.09808 24 4.6875V20.3125C24 22.9019 21.9858 25 19.5 25H4.5C2.01415 25 0 22.9019 0 20.3125V4.6875C0 2.09808 2.01415 0 4.5 0ZM16.644 13.4635H18.8898L19.1954 10.5462H16.644L16.6486 8.90865C16.6486 8.12981 16.7188 7.71346 17.7914 7.71346H19.4132V4.80769H16.6209C13.8655 4.80769 12.8945 6.25385 12.8935 8.68942V10.5471H11.4388V13.4635H12.8935V22.1212H16.644V13.4635Z" fill="#FB6EA4"/>
</svg>
