<svg width="18" height="15" viewBox="0 0 18 15" fill="none" xmlns="http://www.w3.org/2000/svg">
<path fill-rule="evenodd" clip-rule="evenodd" d="M17.932 8.29399C17.893 8.39699 17.836 8.49499 17.752 8.57899L11.528 14.752C11.216 15.064 10.709 15.064 10.397 14.752C10.084 14.443 10.084 13.941 10.397 13.631L15.317 8.74999H0.766C0.343 8.74999 0 8.40699 0 7.98399C0 7.56099 0.343 7.21799 0.766 7.21799H15.312L10.397 2.34199C10.084 2.03199 10.084 1.52999 10.397 1.21999C10.709 0.909988 11.216 0.909988 11.528 1.21999L17.752 7.39399C17.834 7.47499 17.892 7.57099 17.931 7.67299C17.974 7.76799 18 7.87199 18 7.98399C18 8.09499 17.974 8.19899 17.932 8.29399Z" fill="white"/>
</svg>
