<svg width="24" height="24" viewBox="0 0 24 24" fill="none" xmlns="http://www.w3.org/2000/svg">
<path d="M21.7116 4.88392C21.6558 4.8002 21.6 4.74438 21.5442 4.66066C21.4884 4.60485 21.4326 4.52113 21.4047 4.46531C21.2093 4.18624 20.986 3.93508 20.7349 3.68392C20.707 3.65601 20.6791 3.62811 20.6512 3.6002C20.5953 3.54438 20.5674 3.48857 20.5116 3.46066C20.3442 3.29322 20.1767 3.12578 20.0093 2.98624C19.9814 2.95834 19.9256 2.93043 19.8977 2.90252C19.7023 2.73508 19.5349 2.59555 19.3395 2.45601C19.2837 2.42811 19.2558 2.4002 19.2 2.34438C19.0326 2.23276 18.893 2.12113 18.7256 2.03741C18.614 1.95369 18.4744 1.86997 18.3628 1.81415C18.2791 1.75834 18.1953 1.73043 18.1116 1.67462C18.0279 1.6188 17.9442 1.56299 17.8326 1.50717C17.8326 1.50717 17.8326 1.50717 17.8047 1.47927C17.5814 1.33973 17.3023 1.22811 17.0512 1.11648C16.3256 0.809501 15.5721 0.558338 14.8186 0.390896C11.4977 -0.390499 8.14884 0.16764 5.35814 2.03741C2.0093 4.24206 0 7.95369 0 11.9723C0 14.9862 1.14419 17.8886 3.1814 20.0932C5.2186 22.2979 7.98139 23.6374 10.9674 23.8607C11.0233 23.8607 11.0791 23.8607 11.1349 23.8607C11.414 23.8607 11.7209 23.8048 11.9721 23.6653C12.1395 23.5816 12.307 23.47 12.4465 23.3304C12.7814 23.0235 12.9767 22.6328 13.0326 22.1862C13.0326 22.1025 13.0605 21.9909 13.0605 21.9072V18.3351C13.0605 18.3072 13.0605 18.2793 13.0605 18.2514V18.2235C13.0605 18.1955 13.0605 18.1955 13.0605 18.1955C13.0605 18.1397 13.0605 18.0839 13.0605 18.056C13.0605 17.4421 12.5581 16.9397 11.9442 16.9397C9.93488 16.9397 8.28837 15.2932 8.28837 13.2839V10.9955V10.9676H15.5163V13.256C15.5163 13.6467 15.4605 14.0095 15.3488 14.3723C14.9581 15.2095 14.4279 15.9909 13.814 16.6886C13.7302 17.2188 13.7302 18.1955 14.6233 19.0607C15.8233 17.9723 16.7721 16.6607 17.4419 15.2374C17.4419 15.2374 17.6372 14.8467 17.7488 13.9816C17.7767 13.7862 17.8047 13.563 17.8047 13.3118C17.8047 13.256 17.8047 13.2002 17.8047 13.1723V13.1165V11.5816V9.82345C17.7767 9.2095 17.2744 8.70718 16.6326 8.70718H16.1302H16.0186H15.5163H15.4884H15.0419V6.19555C15.0419 5.58159 14.5395 5.07927 13.9256 5.07927C13.3116 5.07927 12.8093 5.58159 12.8093 6.19555V8.70718H10.9395V6.19555C10.9395 5.58159 10.4372 5.07927 9.82326 5.07927C9.2093 5.07927 8.70698 5.58159 8.70698 6.19555V8.70718H8.20465H8.12093H7.14419C6.53023 8.70718 6.02791 9.2095 6.02791 9.82345V10.2979V10.9955V13.2839C6.02791 14.7072 6.53023 16.0746 7.47907 17.1351C8.34419 18.1397 9.51628 18.8095 10.8 19.0607V21.5723C10.493 21.5444 10.2419 21.4886 9.96279 21.4328C5.55349 20.5118 2.26047 16.5769 2.26047 11.9723C2.26047 8.70717 3.87907 5.69322 6.61395 3.90718C9.40465 2.06531 12.893 1.81415 16.186 3.2095C17.3581 3.68392 18.3349 4.38159 19.1442 5.30252C19.1442 5.30252 21.2651 7.6188 21.5721 11.0235C21.5721 11.0793 21.5721 11.1351 21.6 11.1909C21.7395 13.2839 21.2093 15.7955 19.1163 18.4188C19.0326 18.949 19.0326 19.9258 19.8977 20.8188C21.7674 19.1444 23.0512 16.9676 23.6093 14.5397C24.1953 12.0002 23.8884 9.26531 22.7163 6.64206C22.4372 6.02811 22.1023 5.44206 21.7116 4.88392Z" fill="#212121"/>
</svg>
